ffmpeg version 4.4.2-0ubuntu0.22.04.1 Copyright (c) 2000-2021 the FFmpeg developers
  built with gcc 11 (Ubuntu 11.2.0-19ubuntu1)
  configuration: --prefix=/usr --extra-version=0ubuntu0.22.04.1 --toolchain=hardened --libdir=/usr/lib/x86_64-linux-gnu --incdir=/usr/include/x86_64-linux-gnu --arch=amd64 --enable-gpl --disable-stripping --enable-gnutls --enable-ladspa --enable-libaom --enable-libass --enable-libbluray --enable-libbs2b --enable-libcaca --enable-libcdio --enable-libcodec2 --enable-libdav1d --enable-libflite --enable-libfontconfig --enable-libfreetype --enable-libfribidi --enable-libgme --enable-libgsm --enable-libjack --enable-libmp3lame --enable-libmysofa --enable-libopenjpeg --enable-libopenmpt --enable-libopus --enable-libpulse --enable-librabbitmq --enable-librubberband --enable-libshine --enable-libsnappy --enable-libsoxr --enable-libspeex --enable-libsrt --enable-libssh --enable-libtheora --enable-libtwolame --enable-libvidstab --enable-libvorbis --enable-libvpx --enable-libwebp --enable-libx265 --enable-libxml2 --enable-libxvid --enable-libzimg --enable-libzmq --enable-libzvbi --enable-lv2 --enable-omx --enable-openal --enable-opencl --enable-opengl --enable-sdl2 --enable-pocketsphinx --enable-librsvg --enable-libmfx --enable-libdc1394 --enable-libdrm --enable-libiec61883 --enable-chromaprint --enable-frei0r --enable-libx264 --enable-shared
  libavutil      56. 70.100 / 56. 70.100
  libavcodec     58.134.100 / 58.134.100
  libavformat    58. 76.100 / 58. 76.100
  libavdevice    58. 13.100 / 58. 13.100
  libavfilter     7.110.100 /  7.110.100
  libswscale      5.  9.100 /  5.  9.100
  libswresample   3.  9.100 /  3.  9.100
  libpostproc    55.  9.100 / 55.  9.100
Input #0, rtsp, from 'rtsps://unibrain:7441/czvdwXwUsHGK8ksP?enableSrtp':
  Metadata:
    title           : 28704E10239B_1
  Duration: N/A, start: 0.000000, bitrate: N/A
  Stream #0:0: Audio: aac (LC), 16000 Hz, mono, fltp
  Stream #0:1: Audio: opus, 48000 Hz, stereo, fltp
  Stream #0:2: Video: h264 (Main), yuvj420p(pc, bt709, progressive), 1280x720, 30 fps, 30 tbr, 90k tbn, 60 tbc
Stream mapping:
  Stream #0:2 -> #0:0 (h264 (native) -> h264 (libx264))
  Stream #0:1 -> #0:1 (opus (native) -> aac (native))
Press [q] to stop, [?] for help
[libx264 @ 0x55fd2ff14a00] using cpu capabilities: MMX2 SSE2Fast SSSE3 SSE4.2 AVX FMA3 BMI2 AVX2
[libx264 @ 0x55fd2ff14a00] profile High, level 3.1, 4:2:0, 8-bit
[libx264 @ 0x55fd2ff14a00] 264 - core 163 r3060 5db6aa6 - H.264/MPEG-4 AVC codec - Copyleft 2003-2021 - http://www.videolan.org/x264.html - options: cabac=1 ref=3 deblock=1:0:0 analyse=0x3:0x113 me=hex subme=7 psy=1 psy_rd=1.00:0.00 mixed_ref=1 me_range=16 chroma_me=1 trellis=1 8x8dct=1 cqm=0 deadzone=21,11 fast_pskip=1 chroma_qp_offset=-2 threads=12 lookahead_threads=2 sliced_threads=0 nr=0 decimate=1 interlaced=0 bluray_compat=0 constrained_intra=0 bframes=3 b_pyramid=2 b_adapt=1 b_bias=0 direct=1 weightb=1 open_gop=0 weightp=2 keyint=250 keyint_min=25 scenecut=40 intra_refresh=0 rc_lookahead=40 rc=crf mbtree=1 crf=23.0 qcomp=0.60 qpmin=0 qpmax=69 qpstep=4 ip_ratio=1.40 aq=1:1.00
Output #0, hls, to '/home/deploy/Projects/fuzzballs/stream/roost/index.m3u8':
  Metadata:
    title           : 28704E10239B_1
    encoder         : Lavf58.76.100
  Stream #0:0: Video: h264, yuvj420p(pc, bt709, progressive), 1280x720, q=2-31, 30 fps, 90k tbn
    Metadata:
      encoder         : Lavc58.134.100 libx264
    Side data:
      cpb: bitrate max/min/avg: 0/0/0 buffer size: 0 vbv_delay: N/A
  Stream #0:1: Audio: aac (LC), 48000 Hz, stereo, fltp, 128 kb/s
    Metadata:
      encoder         : Lavc58.134.100 aac
frame=   12 fps=0.0 q=0.0 size=N/A time=00:00:01.98 bitrate=N/A dup=11 drop=0 speed=27.5x    frame=   92 fps=0.0 q=29.0 size=N/A time=00:00:03.20 bitrate=N/A dup=55 drop=0 speed= 5.4x    frame=  109 fps= 99 q=29.0 size=N/A time=00:00:03.73 bitrate=N/A dup=55 drop=0 speed= 3.4x    frame=  124 fps= 76 q=29.0 size=N/A time=00:00:04.24 bitrate=N/A dup=55 drop=0 speed=2.61x    frame=  138 fps= 65 q=29.0 size=N/A time=00:00:04.75 bitrate=N/A dup=55 drop=0 speed=2.24x    frame=  143 fps= 54 q=29.0 size=N/A time=00:00:05.24 bitrate=N/A dup=55 drop=0 speed=   2x    frame=  148 fps= 47 q=29.0 size=N/A time=00:00:05.76 bitrate=N/A dup=55 drop=0 speed=1.82x    frame=  164 fps= 45 q=29.0 size=N/A time=00:00:06.31 bitrate=N/A dup=66 drop=0 speed=1.72x    frame=  180 fps= 43 q=29.0 size=N/A time=00:00:06.80 bitrate=N/A dup=77 drop=0 speed=1.62x    frame=  194 fps= 41 q=29.0 size=N/A time=00:00:07.36 bitrate=N/A dup=87 drop=0 speed=1.54x    frame=  210 fps= 40 q=29.0 size=N/A time=00:00:07.91 bitrate=N/A dup=98 drop=0 speed=1.49x    frame=  227 fps= 39 q=29.0 size=N/A time=00:00:08.42 bitrate=N/A dup=110 drop=0 speed=1.45x    frame=  240 fps= 38 q=29.0 size=N/A time=00:00:08.91 bitrate=N/A dup=119 drop=0 speed=1.42x    frame=  257 fps= 38 q=29.0 size=N/A time=00:00:09.45 bitrate=N/A dup=131 drop=0 speed=1.39x    frame=  274 fps= 37 q=29.0 size=N/A time=00:00:09.94 bitrate=N/A dup=143 drop=0 speed=1.36x    frame=  290 fps= 37 q=29.0 size=N/A time=00:00:10.47 bitrate=N/A dup=154 drop=0 speed=1.34x    frame=  304 fps= 36 q=29.0 size=N/A time=00:00:10.94 bitrate=N/A dup=164 drop=0 speed=1.31x    [hls @ 0x55fd2fefa5c0] Opening '/home/deploy/Projects/fuzzballs/stream/roost/index0.ts' for writing
[hls @ 0x55fd2fefa5c0] Opening '/home/deploy/Projects/fuzzballs/stream/roost/index.m3u8.tmp' for writing
frame=  317 fps= 36 q=29.0 size=N/A time=00:00:11.45 bitrate=N/A dup=173 drop=0 speed=1.29x    frame=  334 fps= 36 q=29.0 size=N/A time=00:00:12.01 bitrate=N/A dup=185 drop=0 speed=1.28x    frame=  350 fps= 35 q=29.0 size=N/A time=00:00:12.54 bitrate=N/A dup=196 drop=0 speed=1.26x    frame=  367 fps= 35 q=29.0 size=N/A time=00:00:13.05 bitrate=N/A dup=208 drop=0 speed=1.25x    frame=  380 fps= 35 q=29.0 size=N/A time=00:00:13.58 bitrate=N/A dup=217 drop=0 speed=1.24x    frame=  397 fps= 35 q=29.0 size=N/A time=00:00:14.03 bitrate=N/A dup=229 drop=0 speed=1.23x    frame=  410 fps= 34 q=29.0 size=N/A time=00:00:14.61 bitrate=N/A dup=238 drop=0 speed=1.22x    frame=  437 fps= 35 q=29.0 size=N/A time=00:00:15.12 bitrate=N/A dup=257 drop=0 speed=1.21x    frame=  465 fps= 36 q=29.0 size=N/A time=00:00:15.63 bitrate=N/A dup=270 drop=0 speed= 1.2x    frame=  479 fps= 35 q=29.0 size=N/A time=00:00:16.14 bitrate=N/A dup=270 drop=0 speed= 1.2x    frame=  495 fps= 35 q=29.0 size=N/A time=00:00:16.66 bitrate=N/A dup=270 drop=0 speed=1.19x    frame=  511 fps= 35 q=29.0 size=N/A time=00:00:17.15 bitrate=N/A dup=270 drop=0 speed=1.18x    frame=  525 fps= 35 q=29.0 size=N/A time=00:00:17.66 bitrate=N/A dup=270 drop=0 speed=1.17x    frame=  542 fps= 35 q=29.0 size=N/A time=00:00:18.21 bitrate=N/A dup=270 drop=0 speed=1.17x    [hls @ 0x55fd2fefa5c0] Opening '/home/deploy/Projects/fuzzballs/stream/roost/index1.ts' for writing
[hls @ 0x55fd2fefa5c0] Opening '/home/deploy/Projects/fuzzballs/stream/roost/index.m3u8.tmp' for writing
frame=  557 fps= 35 q=29.0 size=N/A time=00:00:18.73 bitrate=N/A dup=270 drop=0 speed=1.16x    frame=  573 fps= 35 q=29.0 size=N/A time=00:00:19.20 bitrate=N/A dup=270 drop=0 speed=1.16x    frame=  587 fps= 34 q=29.0 size=N/A time=00:00:19.71 bitrate=N/A dup=270 drop=0 speed=1.15x    frame=  603 fps= 34 q=29.0 size=N/A time=00:00:20.22 bitrate=N/A dup=270 drop=0 speed=1.15x    frame=  618 fps= 34 q=29.0 size=N/A time=00:00:20.73 bitrate=N/A dup=270 drop=0 speed=1.14x    frame=  635 fps= 34 q=29.0 size=N/A time=00:00:21.24 bitrate=N/A dup=270 drop=0 speed=1.14x    frame=  649 fps= 34 q=29.0 size=N/A time=00:00:21.73 bitrate=N/A dup=270 drop=0 speed=1.14x    frame=  665 fps= 34 q=29.0 size=N/A time=00:00:22.31 bitrate=N/A dup=270 drop=0 speed=1.13x    frame=  680 fps= 34 q=29.0 size=N/A time=00:00:22.78 bitrate=N/A dup=270 drop=0 speed=1.13x    frame=  695 fps= 34 q=29.0 size=N/A time=00:00:23.29 bitrate=N/A dup=270 drop=0 speed=1.13x    frame=  712 fps= 34 q=29.0 size=N/A time=00:00:23.85 bitrate=N/A dup=270 drop=0 speed=1.13x    frame=  726 fps= 33 q=29.0 size=N/A time=00:00:24.32 bitrate=N/A dup=270 drop=0 speed=1.12x    frame=  741 fps= 33 q=29.0 size=N/A time=00:00:24.87 bitrate=N/A dup=270 drop=0 speed=1.12x    frame=  757 fps= 33 q=29.0 size=N/A time=00:00:25.38 bitrate=N/A dup=270 drop=0 speed=1.12x    frame=  773 fps= 33 q=29.0 size=N/A time=00:00:25.89 bitrate=N/A dup=270 drop=0 speed=1.11x    frame=  788 fps= 33 q=29.0 size=N/A time=00:00:26.38 bitrate=N/A dup=270 drop=0 speed=1.11x    frame=  802 fps= 33 q=29.0 size=N/A time=00:00:26.88 bitrate=N/A dup=270 drop=0 speed=1.11x    [hls @ 0x55fd2fefa5c0] Opening '/home/deploy/Projects/fuzzballs/stream/roost/index2.ts' for writing
[hls @ 0x55fd2fefa5c0] Opening '/home/deploy/Projects/fuzzballs/stream/roost/index.m3u8.tmp' for writing
frame=  818 fps= 33 q=29.0 size=N/A time=00:00:27.43 bitrate=N/A dup=270 drop=0 speed=1.11x    frame=  834 fps= 33 q=29.0 size=N/A time=00:00:27.92 bitrate=N/A dup=270 drop=0 speed= 1.1x    frame=  849 fps= 33 q=29.0 size=N/A time=00:00:28.41 bitrate=N/A dup=270 drop=0 speed= 1.1x    frame=  864 fps= 33 q=29.0 size=N/A time=00:00:28.94 bitrate=N/A dup=270 drop=0 speed= 1.1x    frame=  880 fps= 33 q=29.0 size=N/A time=00:00:29.46 bitrate=N/A dup=270 drop=0 speed= 1.1x    frame=  895 fps= 33 q=29.0 size=N/A time=00:00:29.99 bitrate=N/A dup=270 drop=0 speed= 1.1x    frame=  911 fps= 33 q=29.0 size=N/A time=00:00:30.50 bitrate=N/A dup=270 drop=0 speed=1.09x    frame=  927 fps= 33 q=29.0 size=N/A time=00:00:31.01 bitrate=N/A dup=270 drop=0 speed=1.09x    frame=  943 fps= 33 q=29.0 size=N/A time=00:00:31.59 bitrate=N/A dup=270 drop=0 speed=1.09x    frame=  957 fps= 33 q=29.0 size=N/A time=00:00:32.06 bitrate=N/A dup=270 drop=0 speed=1.09x    frame=  973 fps= 32 q=29.0 size=N/A time=00:00:32.57 bitrate=N/A dup=270 drop=0 speed=1.09x    frame=  989 fps= 32 q=29.0 size=N/A time=00:00:33.08 bitrate=N/A dup=270 drop=0 speed=1.09x    frame= 1004 fps= 32 q=29.0 size=N/A time=00:00:33.57 bitrate=N/A dup=270 drop=0 speed=1.08x    frame= 1020 fps= 32 q=29.0 size=N/A time=00:00:34.13 bitrate=N/A dup=270 drop=0 speed=1.08x    frame= 1036 fps= 32 q=29.0 size=N/A time=00:00:34.64 bitrate=N/A dup=270 drop=0 speed=1.08x    frame= 1051 fps= 32 q=29.0 size=N/A time=00:00:35.15 bitrate=N/A dup=270 drop=0 speed=1.08x    [hls @ 0x55fd2fefa5c0] Opening '/home/deploy/Projects/fuzzballs/stream/roost/index3.ts' for writing
[hls @ 0x55fd2fefa5c0] Opening '/home/deploy/Projects/fuzzballs/stream/roost/index.m3u8.tmp' for writing
frame= 1066 fps= 32 q=29.0 size=N/A time=00:00:35.69 bitrate=N/A dup=270 drop=0 speed=1.08x    frame= 1082 fps= 32 q=29.0 size=N/A time=00:00:36.20 bitrate=N/A dup=270 drop=0 speed=1.08x    frame= 1096 fps= 32 q=29.0 size=N/A time=00:00:36.71 bitrate=N/A dup=270 drop=0 speed=1.08x    frame= 1112 fps= 32 q=29.0 size=N/A time=00:00:37.20 bitrate=N/A dup=270 drop=0 speed=1.08x    frame= 1125 fps= 32 q=29.0 size=N/A time=00:00:37.67 bitrate=N/A dup=270 drop=0 speed=1.07x    frame= 1144 fps= 32 q=29.0 size=N/A time=00:00:38.27 bitrate=N/A dup=270 drop=0 speed=1.07x    frame= 1158 fps= 32 q=29.0 size=N/A time=00:00:38.74 bitrate=N/A dup=270 drop=0 speed=1.07x    frame= 1175 fps= 32 q=29.0 size=N/A time=00:00:39.29 bitrate=N/A dup=270 drop=0 speed=1.07x    frame= 1190 fps= 32 q=29.0 size=N/A time=00:00:39.80 bitrate=N/A dup=270 drop=0 speed=1.07x    frame= 1206 fps= 32 q=29.0 size=N/A time=00:00:40.27 bitrate=N/A dup=270 drop=0 speed=1.07x    frame= 1221 fps= 32 q=29.0 size=N/A time=00:00:40.83 bitrate=N/A dup=270 drop=0 speed=1.07x    frame= 1235 fps= 32 q=29.0 size=N/A time=00:00:41.34 bitrate=N/A dup=270 drop=0 speed=1.07x    frame= 1250 fps= 32 q=29.0 size=N/A time=00:00:41.83 bitrate=N/A dup=270 drop=0 speed=1.07x    frame= 1266 fps= 32 q=29.0 size=N/A time=00:00:42.34 bitrate=N/A dup=270 drop=0 speed=1.07x    frame= 1282 fps= 32 q=29.0 size=N/A time=00:00:42.85 bitrate=N/A dup=270 drop=0 speed=1.07x    frame= 1297 fps= 32 q=29.0 size=N/A time=00:00:43.34 bitrate=N/A dup=270 drop=0 speed=1.06x    [hls @ 0x55fd2fefa5c0] Opening '/home/deploy/Projects/fuzzballs/stream/roost/index4.ts' for writing
[hls @ 0x55fd2fefa5c0] Opening '/home/deploy/Projects/fuzzballs/stream/roost/index.m3u8.tmp' for writing
frame= 1312 fps= 32 q=29.0 size=N/A time=00:00:43.88 bitrate=N/A dup=270 drop=0 speed=1.06x    frame= 1327 fps= 32 q=29.0 size=N/A time=00:00:44.39 bitrate=N/A dup=270 drop=0 speed=1.06x    frame= 1343 fps= 32 q=29.0 size=N/A time=00:00:44.90 bitrate=N/A dup=270 drop=0 speed=1.06x    frame= 1359 fps= 32 q=29.0 size=N/A time=00:00:45.41 bitrate=N/A dup=270 drop=0 speed=1.06x    frame= 1373 fps= 32 q=29.0 size=N/A time=00:00:45.93 bitrate=N/A dup=270 drop=0 speed=1.06x    frame= 1388 fps= 32 q=29.0 size=N/A time=00:00:46.42 bitrate=N/A dup=270 drop=0 speed=1.06x    frame= 1405 fps= 32 q=29.0 size=N/A time=00:00:46.95 bitrate=N/A dup=270 drop=0 speed=1.06x    frame= 1420 fps= 32 q=29.0 size=N/A time=00:00:47.46 bitrate=N/A dup=270 drop=0 speed=1.06x    frame= 1435 fps= 32 q=29.0 size=N/A time=00:00:47.95 bitrate=N/A dup=270 drop=0 speed=1.06x    frame= 1450 fps= 32 q=29.0 size=N/A time=00:00:48.49 bitrate=N/A dup=270 drop=0 speed=1.06x    frame= 1465 fps= 32 q=29.0 size=N/A time=00:00:48.96 bitrate=N/A dup=270 drop=0 speed=1.06x    frame= 1482 fps= 32 q=29.0 size=N/A time=00:00:49.53 bitrate=N/A dup=270 drop=0 speed=1.06x    frame= 1497 fps= 32 q=29.0 size=N/A time=00:00:50.04 bitrate=N/A dup=270 drop=0 speed=1.06x    frame= 1512 fps= 32 q=29.0 size=N/A time=00:00:50.53 bitrate=N/A dup=270 drop=0 speed=1.05x    frame= 1529 fps= 32 q=29.0 size=N/A time=00:00:51.11 bitrate=N/A dup=270 drop=0 speed=1.05x    frame= 1544 fps= 32 q=29.0 size=N/A time=00:00:51.60 bitrate=N/A dup=270 drop=0 speed=1.05x    [hls @ 0x55fd2fefa5c0] Opening '/home/deploy/Projects/fuzzballs/stream/roost/index5.ts' for writing
[hls @ 0x55fd2fefa5c0] Opening '/home/deploy/Projects/fuzzballs/stream/roost/index.m3u8.tmp' for writing
frame= 1559 fps= 32 q=29.0 size=N/A time=00:00:52.09 bitrate=N/A dup=270 drop=0 speed=1.05x    frame= 1575 fps= 31 q=29.0 size=N/A time=00:00:52.65 bitrate=N/A dup=270 drop=0 speed=1.05x    frame= 1589 fps= 31 q=29.0 size=N/A time=00:00:53.09 bitrate=N/A dup=270 drop=0 speed=1.05x    frame= 1604 fps= 31 q=29.0 size=N/A time=00:00:53.58 bitrate=N/A dup=270 drop=0 speed=1.05x    frame= 1620 fps= 31 q=29.0 size=N/A time=00:00:54.16 bitrate=N/A dup=270 drop=0 speed=1.05x    frame= 1636 fps= 31 q=29.0 size=N/A time=00:00:54.65 bitrate=N/A dup=270 drop=0 speed=1.05x    frame= 1650 fps= 31 q=29.0 size=N/A time=00:00:55.14 bitrate=N/A dup=270 drop=0 speed=1.05x    frame= 1666 fps= 31 q=29.0 size=N/A time=00:00:55.68 bitrate=N/A dup=270 drop=0 speed=1.05x    frame= 1682 fps= 31 q=29.0 size=N/A time=00:00:56.23 bitrate=N/A dup=270 drop=0 speed=1.05x    frame= 1698 fps= 31 q=29.0 size=N/A time=00:00:56.72 bitrate=N/A dup=270 drop=0 speed=1.05x    frame= 1714 fps= 31 q=29.0 size=N/A time=00:00:57.25 bitrate=N/A dup=270 drop=0 speed=1.05x    frame= 1730 fps= 31 q=29.0 size=N/A time=00:00:57.81 bitrate=N/A dup=270 drop=0 speed=1.05x    frame= 1745 fps= 31 q=29.0 size=N/A time=00:00:58.32 bitrate=N/A dup=270 drop=0 speed=1.05x    frame= 1761 fps= 31 q=29.0 size=N/A time=00:00:58.83 bitrate=N/A dup=270 drop=0 speed=1.05x    frame= 1777 fps= 31 q=29.0 size=N/A time=00:00:59.32 bitrate=N/A dup=270 drop=0 speed=1.05x    frame= 1791 fps= 31 q=29.0 size=N/A time=00:00:59.81 bitrate=N/A dup=270 drop=0 speed=1.05x    frame= 1806 fps= 31 q=29.0 size=N/A time=00:01:00.30 bitrate=N/A dup=270 drop=0 speed=1.05x    [hls @ 0x55fd2fefa5c0] Opening '/home/deploy/Projects/fuzzballs/stream/roost/index6.ts' for writing
[hls @ 0x55fd2fefa5c0] Opening '/home/deploy/Projects/fuzzballs/stream/roost/index.m3u8.tmp' for writing
frame= 1821 fps= 31 q=29.0 size=N/A time=00:01:00.84 bitrate=N/A dup=270 drop=0 speed=1.05x    frame= 1837 fps= 31 q=29.0 size=N/A time=00:01:01.35 bitrate=N/A dup=270 drop=0 speed=1.04x    frame= 1852 fps= 31 q=29.0 size=N/A time=00:01:01.84 bitrate=N/A dup=270 drop=0 speed=1.04x    frame= 1868 fps= 31 q=29.0 size=N/A time=00:01:02.37 bitrate=N/A dup=270 drop=0 speed=1.04x    frame= 1882 fps= 31 q=29.0 size=N/A time=00:01:02.91 bitrate=N/A dup=270 drop=0 speed=1.04x    frame= 1897 fps= 31 q=29.0 size=N/A time=00:01:03.38 bitrate=N/A dup=270 drop=0 speed=1.04x    frame= 1914 fps= 31 q=29.0 size=N/A time=00:01:03.91 bitrate=N/A dup=270 drop=0 speed=1.04x    frame= 1928 fps= 31 q=29.0 size=N/A time=00:01:04.44 bitrate=N/A dup=270 drop=0 speed=1.04x    frame= 1944 fps= 31 q=29.0 size=N/A time=00:01:04.91 bitrate=N/A dup=270 drop=0 speed=1.04x    frame= 1959 fps= 31 q=29.0 size=N/A time=00:01:05.42 bitrate=N/A dup=270 drop=0 speed=1.04x    frame= 1975 fps= 31 q=29.0 size=N/A time=00:01:05.96 bitrate=N/A dup=270 drop=0 speed=1.04x    frame= 1991 fps= 31 q=29.0 size=N/A time=00:01:06.47 bitrate=N/A dup=270 drop=0 speed=1.04x    frame= 2005 fps= 31 q=29.0 size=N/A time=00:01:06.94 bitrate=N/A dup=270 drop=0 speed=1.04x    frame= 2020 fps= 31 q=29.0 size=N/A time=00:01:07.47 bitrate=N/A dup=270 drop=0 speed=1.04x    frame= 2036 fps= 31 q=29.0 size=N/A time=00:01:07.98 bitrate=N/A dup=270 drop=0 speed=1.04x    frame= 2050 fps= 31 q=29.0 size=N/A time=00:01:08.48 bitrate=N/A dup=270 drop=0 speed=1.04x    [hls @ 0x55fd2fefa5c0] Opening '/home/deploy/Projects/fuzzballs/stream/roost/index7.ts' for writing
[hls @ 0x55fd2fefa5c0] Opening '/home/deploy/Projects/fuzzballs/stream/roost/index.m3u8.tmp' for writing
frame= 2066 fps= 31 q=29.0 size=N/A time=00:01:09.03 bitrate=N/A dup=270 drop=0 speed=1.04x    frame= 2082 fps= 31 q=29.0 size=N/A time=00:01:09.50 bitrate=N/A dup=270 drop=0 speed=1.04x    frame= 2096 fps= 31 q=29.0 size=N/A time=00:01:10.01 bitrate=N/A dup=270 drop=0 speed=1.04x    frame= 2112 fps= 31 q=29.0 size=N/A time=00:01:10.54 bitrate=N/A dup=270 drop=0 speed=1.04x    frame= 2127 fps= 31 q=29.0 size=N/A time=00:01:11.01 bitrate=N/A dup=270 drop=0 speed=1.04x    frame= 2143 fps= 31 q=29.0 size=N/A time=00:01:11.53 bitrate=N/A dup=270 drop=0 speed=1.04x    frame= 2157 fps= 31 q=29.0 size=N/A time=00:01:12.04 bitrate=N/A dup=270 drop=0 speed=1.04x    frame= 2173 fps= 31 q=29.0 size=N/A time=00:01:12.57 bitrate=N/A dup=270 drop=0 speed=1.04x    frame= 2188 fps= 31 q=29.0 size=N/A time=00:01:13.04 bitrate=N/A dup=270 drop=0 speed=1.04x    frame= 2204 fps= 31 q=29.0 size=N/A time=00:01:13.57 bitrate=N/A dup=270 drop=0 speed=1.04x    frame= 2219 fps= 31 q=29.0 size=N/A time=00:01:14.13 bitrate=N/A dup=270 drop=0 speed=1.04x    frame= 2235 fps= 31 q=29.0 size=N/A time=00:01:14.64 bitrate=N/A dup=270 drop=0 speed=1.04x    frame= 2252 fps= 31 q=29.0 size=N/A time=00:01:15.17 bitrate=N/A dup=270 drop=0 speed=1.04x    frame= 2266 fps= 31 q=29.0 size=N/A time=00:01:15.66 bitrate=N/A dup=270 drop=0 speed=1.04x    frame= 2282 fps= 31 q=29.0 size=N/A time=00:01:16.22 bitrate=N/A dup=270 drop=0 speed=1.04x    frame= 2298 fps= 31 q=29.0 size=N/A time=00:01:16.73 bitrate=N/A dup=270 drop=0 speed=1.04x    [hls @ 0x55fd2fefa5c0] Opening '/home/deploy/Projects/fuzzballs/stream/roost/index8.ts' for writing
[hls @ 0x55fd2fefa5c0] Opening '/home/deploy/Projects/fuzzballs/stream/roost/index.m3u8.tmp' for writing
frame= 2314 fps= 31 q=29.0 size=N/A time=00:01:17.24 bitrate=N/A dup=270 drop=0 speed=1.04x    frame= 2328 fps= 31 q=29.0 size=N/A time=00:01:17.71 bitrate=N/A dup=270 drop=0 speed=1.03x    frame= 2343 fps= 31 q=29.0 size=N/A time=00:01:18.25 bitrate=N/A dup=270 drop=0 speed=1.03x    frame= 2359 fps= 31 q=29.0 size=N/A time=00:01:18.74 bitrate=N/A dup=270 drop=0 speed=1.03x    frame= 2374 fps= 31 q=29.0 size=N/A time=00:01:19.27 bitrate=N/A dup=270 drop=0 speed=1.03x    frame= 2389 fps= 31 q=29.0 size=N/A time=00:01:19.76 bitrate=N/A dup=270 drop=0 speed=1.03x    frame= 2404 fps= 31 q=29.0 size=N/A time=00:01:20.27 bitrate=N/A dup=270 drop=0 speed=1.03x    frame= 2420 fps= 31 q=29.0 size=N/A time=00:01:20.81 bitrate=N/A dup=270 drop=0 speed=1.03x    frame= 2435 fps= 31 q=29.0 size=N/A time=00:01:21.30 bitrate=N/A dup=270 drop=0 speed=1.03x    frame= 2451 fps= 31 q=29.0 size=N/A time=00:01:21.83 bitrate=N/A dup=270 drop=0 speed=1.03x    frame= 2466 fps= 31 q=29.0 size=N/A time=00:01:22.32 bitrate=N/A dup=270 drop=0 speed=1.03x    frame= 2482 fps= 31 q=29.0 size=N/A time=00:01:22.83 bitrate=N/A dup=270 drop=0 speed=1.03x    frame= 2496 fps= 31 q=29.0 size=N/A time=00:01:23.32 bitrate=N/A dup=270 drop=0 speed=1.03x    frame= 2511 fps= 31 q=29.0 size=N/A time=00:01:23.84 bitrate=N/A dup=270 drop=0 speed=1.03x    frame= 2526 fps= 31 q=29.0 size=N/A time=00:01:24.37 bitrate=N/A dup=270 drop=0 speed=1.03x    frame= 2542 fps= 31 q=29.0 size=N/A time=00:01:24.84 bitrate=N/A dup=270 drop=0 speed=1.03x    [hls @ 0x55fd2fefa5c0] Opening '/home/deploy/Projects/fuzzballs/stream/roost/index9.ts' for writing
[hls @ 0x55fd2fefa5c0] Opening '/home/deploy/Projects/fuzzballs/stream/roost/index.m3u8.tmp' for writing
frame= 2557 fps= 31 q=29.0 size=N/A time=00:01:25.37 bitrate=N/A dup=270 drop=0 speed=1.03x    frame= 2572 fps= 31 q=29.0 size=N/A time=00:01:25.86 bitrate=N/A dup=270 drop=0 speed=1.03x    frame= 2587 fps= 31 q=29.0 size=N/A time=00:01:26.35 bitrate=N/A dup=270 drop=0 speed=1.03x    frame= 2602 fps= 31 q=29.0 size=N/A time=00:01:26.86 bitrate=N/A dup=270 drop=0 speed=1.03x    frame= 2617 fps= 31 q=29.0 size=N/A time=00:01:27.38 bitrate=N/A dup=270 drop=0 speed=1.03x    frame= 2632 fps= 31 q=29.0 size=N/A time=00:01:27.91 bitrate=N/A dup=270 drop=0 speed=1.03x    frame= 2648 fps= 31 q=29.0 size=N/A time=00:01:28.40 bitrate=N/A dup=270 drop=0 speed=1.03x    frame= 2662 fps= 31 q=29.0 size=N/A time=00:01:28.89 bitrate=N/A dup=270 drop=0 speed=1.03x    frame= 2679 fps= 31 q=29.0 size=N/A time=00:01:29.42 bitrate=N/A dup=270 drop=0 speed=1.03x    frame= 2694 fps= 31 q=29.0 size=N/A time=00:01:29.94 bitrate=N/A dup=270 drop=0 speed=1.03x    frame= 2709 fps= 31 q=29.0 size=N/A time=00:01:30.47 bitrate=N/A dup=270 drop=0 speed=1.03x    frame= 2725 fps= 31 q=29.0 size=N/A time=00:01:30.96 bitrate=N/A dup=270 drop=0 speed=1.03x    frame= 2742 fps= 31 q=29.0 size=N/A time=00:01:31.47 bitrate=N/A dup=271 drop=0 speed=1.03x    frame= 2756 fps= 31 q=29.0 size=N/A time=00:01:31.96 bitrate=N/A dup=271 drop=0 speed=1.03x    frame= 2771 fps= 31 q=29.0 size=N/A time=00:01:32.45 bitrate=N/A dup=271 drop=0 speed=1.03x    frame= 2786 fps= 31 q=29.0 size=N/A time=00:01:32.97 bitrate=N/A dup=271 drop=0 speed=1.03x    frame= 2801 fps= 31 q=29.0 size=N/A time=00:01:33.50 bitrate=N/A dup=271 drop=0 speed=1.03x    [hls @ 0x55fd2fefa5c0] Opening '/home/deploy/Projects/fuzzballs/stream/roost/index0.ts' for writing
[hls @ 0x55fd2fefa5c0] Opening '/home/deploy/Projects/fuzzballs/stream/roost/index.m3u8.tmp' for writing
frame= 2817 fps= 31 q=29.0 size=N/A time=00:01:34.01 bitrate=N/A dup=271 drop=0 speed=1.03x    frame= 2832 fps= 31 q=29.0 size=N/A time=00:01:34.52 bitrate=N/A dup=271 drop=0 speed=1.03x    frame= 2848 fps= 31 q=29.0 size=N/A time=00:01:35.04 bitrate=N/A dup=271 drop=0 speed=1.03x    frame= 2864 fps= 31 q=29.0 size=N/A time=00:01:35.55 bitrate=N/A dup=271 drop=0 speed=1.03x    frame= 2879 fps= 31 q=29.0 size=N/A time=00:01:36.06 bitrate=N/A dup=271 drop=0 speed=1.03x    frame= 2894 fps= 31 q=29.0 size=N/A time=00:01:36.57 bitrate=N/A dup=271 drop=0 speed=1.03x    frame= 2910 fps= 31 q=29.0 size=N/A time=00:01:37.13 bitrate=N/A dup=271 drop=0 speed=1.03x    frame= 2925 fps= 31 q=29.0 size=N/A time=00:01:37.62 bitrate=N/A dup=271 drop=0 speed=1.03x    frame= 2940 fps= 31 q=29.0 size=N/A time=00:01:38.15 bitrate=N/A dup=271 drop=0 speed=1.03x    frame= 2956 fps= 31 q=29.0 size=N/A time=00:01:38.66 bitrate=N/A dup=271 drop=0 speed=1.03x    frame= 2971 fps= 31 q=29.0 size=N/A time=00:01:39.13 bitrate=N/A dup=271 drop=0 speed=1.03x    frame= 2987 fps= 31 q=29.0 size=N/A time=00:01:39.66 bitrate=N/A dup=271 drop=0 speed=1.03x    frame= 3003 fps= 31 q=29.0 size=N/A time=00:01:40.20 bitrate=N/A dup=271 drop=0 speed=1.03x    frame= 3019 fps= 31 q=29.0 size=N/A time=00:01:40.73 bitrate=N/A dup=271 drop=0 speed=1.03x    frame= 3034 fps= 31 q=29.0 size=N/A time=00:01:41.24 bitrate=N/A dup=271 drop=0 speed=1.03x    frame= 3048 fps= 31 q=29.0 size=N/A time=00:01:41.71 bitrate=N/A dup=271 drop=0 speed=1.03x    [hls @ 0x55fd2fefa5c0] Opening '/home/deploy/Projects/fuzzballs/stream/roost/index1.ts' for writing
[hls @ 0x55fd2fefa5c0] Opening '/home/deploy/Projects/fuzzballs/stream/roost/index.m3u8.tmp' for writing
frame= 3064 fps= 31 q=29.0 size=N/A time=00:01:42.20 bitrate=N/A dup=271 drop=0 speed=1.03x    frame= 3080 fps= 31 q=29.0 size=N/A time=00:01:42.76 bitrate=N/A dup=271 drop=0 speed=1.03x    frame= 3095 fps= 31 q=29.0 size=N/A time=00:01:43.27 bitrate=N/A dup=271 drop=0 speed=1.03x    frame= 3110 fps= 31 q=29.0 size=N/A time=00:01:43.76 bitrate=N/A dup=271 drop=0 speed=1.03x    frame= 3126 fps= 31 q=29.0 size=N/A time=00:01:44.27 bitrate=N/A dup=271 drop=0 speed=1.03x    frame= 3141 fps= 31 q=29.0 size=N/A time=00:01:44.85 bitrate=N/A dup=271 drop=0 speed=1.03x    frame= 3156 fps= 31 q=29.0 size=N/A time=00:01:45.30 bitrate=N/A dup=271 drop=0 speed=1.03x    frame= 3171 fps= 31 q=29.0 size=N/A time=00:01:45.83 bitrate=N/A dup=271 drop=0 speed=1.03x    frame= 3187 fps= 31 q=29.0 size=N/A time=00:01:46.30 bitrate=N/A dup=271 drop=0 speed=1.02x    frame= 3203 fps= 31 q=29.0 size=N/A time=00:01:46.83 bitrate=N/A dup=271 drop=0 speed=1.02x    frame= 3217 fps= 31 q=29.0 size=N/A time=00:01:47.39 bitrate=N/A dup=271 drop=0 speed=1.03x    frame= 3233 fps= 31 q=29.0 size=N/A time=00:01:47.88 bitrate=N/A dup=271 drop=0 speed=1.03x    frame= 3249 fps= 31 q=29.0 size=N/A time=00:01:48.41 bitrate=N/A dup=271 drop=0 speed=1.02x    frame= 3265 fps= 31 q=29.0 size=N/A time=00:01:48.90 bitrate=N/A dup=271 drop=0 speed=1.02x    frame= 3278 fps= 31 q=29.0 size=N/A time=00:01:49.37 bitrate=N/A dup=271 drop=0 speed=1.02x    frame= 3294 fps= 31 q=29.0 size=N/A time=00:01:49.90 bitrate=N/A dup=271 drop=0 speed=1.02x    [hls @ 0x55fd2fefa5c0] Opening '/home/deploy/Projects/fuzzballs/stream/roost/index2.ts' for writing
[hls @ 0x55fd2fefa5c0] Opening '/home/deploy/Projects/fuzzballs/stream/roost/index.m3u8.tmp' for writing
frame= 3309 fps= 31 q=29.0 size=N/A time=00:01:50.37 bitrate=N/A dup=271 drop=0 speed=1.02x    frame= 3323 fps= 31 q=29.0 size=N/A time=00:01:50.89 bitrate=N/A dup=271 drop=0 speed=1.02x    frame= 3339 fps= 31 q=29.0 size=N/A time=00:01:51.40 bitrate=N/A dup=271 drop=0 speed=1.02x    frame= 3354 fps= 31 q=29.0 size=N/A time=00:01:51.91 bitrate=N/A dup=271 drop=0 speed=1.02x    frame= 3369 fps= 31 q=29.0 size=N/A time=00:01:52.40 bitrate=N/A dup=271 drop=0 speed=1.02x    frame= 3385 fps= 31 q=29.0 size=N/A time=00:01:52.91 bitrate=N/A dup=271 drop=0 speed=1.02x    frame= 3399 fps= 31 q=29.0 size=N/A time=00:01:53.42 bitrate=N/A dup=271 drop=0 speed=1.02x    frame= 3415 fps= 31 q=29.0 size=N/A time=00:01:53.98 bitrate=N/A dup=271 drop=0 speed=1.02x    frame= 3431 fps= 31 q=29.0 size=N/A time=00:01:54.47 bitrate=N/A dup=271 drop=0 speed=1.02x    frame= 3446 fps= 31 q=29.0 size=N/A time=00:01:54.96 bitrate=N/A dup=271 drop=0 speed=1.02x    frame= 3460 fps= 31 q=29.0 size=N/A time=00:01:55.45 bitrate=N/A dup=271 drop=0 speed=1.02x    frame= 3475 fps= 31 q=29.0 size=N/A time=00:01:55.94 bitrate=N/A dup=271 drop=0 speed=1.02x    frame= 3491 fps= 31 q=29.0 size=N/A time=00:01:56.48 bitrate=N/A dup=271 drop=0 speed=1.02x    frame= 3506 fps= 31 q=29.0 size=N/A time=00:01:57.03 bitrate=N/A dup=271 drop=0 speed=1.02x    frame= 3522 fps= 31 q=29.0 size=N/A time=00:01:57.54 bitrate=N/A dup=271 drop=0 speed=1.02x    frame= 3538 fps= 31 q=29.0 size=N/A time=00:01:58.03 bitrate=N/A dup=271 drop=0 speed=1.02x    frame= 3554 fps= 31 q=29.0 size=N/A time=00:01:58.59 bitrate=N/A dup=271 drop=0 speed=1.02x    [hls @ 0x55fd2fefa5c0] Opening '/home/deploy/Projects/fuzzballs/stream/roost/index3.ts' for writing
[hls @ 0x55fd2fefa5c0] Opening '/home/deploy/Projects/fuzzballs/stream/roost/index.m3u8.tmp' for writing
frame= 3571 fps= 31 q=29.0 size=N/A time=00:01:59.10 bitrate=N/A dup=271 drop=0 speed=1.02x    frame= 3585 fps= 31 q=29.0 size=N/A time=00:01:59.61 bitrate=N/A dup=271 drop=0 speed=1.02x    frame= 3600 fps= 31 q=29.0 size=N/A time=00:02:00.14 bitrate=N/A dup=271 drop=0 speed=1.02x    frame= 3616 fps= 31 q=29.0 size=N/A time=00:02:00.61 bitrate=N/A dup=271 drop=0 speed=1.02x    frame= 3632 fps= 31 q=29.0 size=N/A time=00:02:01.19 bitrate=N/A dup=271 drop=0 speed=1.02x    frame= 3646 fps= 31 q=29.0 size=N/A time=00:02:01.66 bitrate=N/A dup=271 drop=0 speed=1.02x    frame= 3662 fps= 31 q=29.0 size=N/A time=00:02:02.17 bitrate=N/A dup=271 drop=0 speed=1.02x    frame= 3678 fps= 31 q=29.0 size=N/A time=00:02:02.70 bitrate=N/A dup=271 drop=0 speed=1.02x    frame= 3694 fps= 31 q=29.0 size=N/A time=00:02:03.24 bitrate=N/A dup=271 drop=0 speed=1.02x    frame= 3709 fps= 31 q=29.0 size=N/A time=00:02:03.75 bitrate=N/A dup=271 drop=0 speed=1.02x    frame= 3724 fps= 31 q=29.0 size=N/A time=00:02:04.24 bitrate=N/A dup=271 drop=0 speed=1.02x    frame= 3738 fps= 31 q=29.0 size=N/A time=00:02:04.73 bitrate=N/A dup=271 drop=0 speed=1.02x    frame= 3754 fps= 31 q=29.0 size=N/A time=00:02:05.26 bitrate=N/A dup=271 drop=0 speed=1.02x    frame= 3770 fps= 31 q=29.0 size=N/A time=00:02:05.78 bitrate=N/A dup=271 drop=0 speed=1.02x    frame= 3787 fps= 31 q=29.0 size=N/A time=00:02:06.31 bitrate=N/A dup=271 drop=0 speed=1.02x    frame= 3802 fps= 31 q=29.0 size=N/A time=00:02:06.84 bitrate=N/A dup=271 drop=0 speed=1.02x    [hls @ 0x55fd2fefa5c0] Opening '/home/deploy/Projects/fuzzballs/stream/roost/index4.ts' for writing
[hls @ 0x55fd2fefa5c0] Opening '/home/deploy/Projects/fuzzballs/stream/roost/index.m3u8.tmp' for writing
frame= 3816 fps= 31 q=29.0 size=N/A time=00:02:07.33 bitrate=N/A dup=271 drop=0 speed=1.02x    frame= 3831 fps= 31 q=29.0 size=N/A time=00:02:07.82 bitrate=N/A dup=271 drop=0 speed=1.02x    frame= 3847 fps= 31 q=29.0 size=N/A time=00:02:08.36 bitrate=N/A dup=271 drop=0 speed=1.02x    frame= 3863 fps= 31 q=29.0 size=N/A time=00:02:08.87 bitrate=N/A dup=271 drop=0 speed=1.02x    frame= 3878 fps= 31 q=29.0 size=N/A time=00:02:09.34 bitrate=N/A dup=271 drop=0 speed=1.02x    frame= 3894 fps= 31 q=29.0 size=N/A time=00:02:09.89 bitrate=N/A dup=271 drop=0 speed=1.02x    frame= 3909 fps= 31 q=29.0 size=N/A time=00:02:10.41 bitrate=N/A dup=271 drop=0 speed=1.02x    frame= 3924 fps= 31 q=29.0 size=N/A time=00:02:10.94 bitrate=N/A dup=271 drop=0 speed=1.02x    frame= 3939 fps= 31 q=29.0 size=N/A time=00:02:11.45 bitrate=N/A dup=271 drop=0 speed=1.02x    frame= 3955 fps= 31 q=29.0 size=N/A time=00:02:11.96 bitrate=N/A dup=271 drop=0 speed=1.02x    frame= 3971 fps= 31 q=29.0 size=N/A time=00:02:12.45 bitrate=N/A dup=271 drop=0 speed=1.02x    frame= 3987 fps= 31 q=29.0 size=N/A time=00:02:12.99 bitrate=N/A dup=271 drop=0 speed=1.02x    frame= 4001 fps= 31 q=29.0 size=N/A time=00:02:13.50 bitrate=N/A dup=271 drop=0 speed=1.02x    frame= 4017 fps= 31 q=29.0 size=N/A time=00:02:14.01 bitrate=N/A dup=271 drop=0 speed=1.02x    frame= 4033 fps= 31 q=29.0 size=N/A time=00:02:14.57 bitrate=N/A dup=271 drop=0 speed=1.02x    frame= 4048 fps= 31 q=29.0 size=N/A time=00:02:15.08 bitrate=N/A dup=271 drop=0 speed=1.02x    [hls @ 0x55fd2fefa5c0] Opening '/home/deploy/Projects/fuzzballs/stream/roost/index5.ts' for writing
[hls @ 0x55fd2fefa5c0] Opening '/home/deploy/Projects/fuzzballs/stream/roost/index.m3u8.tmp' for writing
frame= 4065 fps= 31 q=29.0 size=N/A time=00:02:15.61 bitrate=N/A dup=271 drop=0 speed=1.02x    frame= 4080 fps= 31 q=29.0 size=N/A time=00:02:16.12 bitrate=N/A dup=271 drop=0 speed=1.02x    frame= 4095 fps= 31 q=29.0 size=N/A time=00:02:16.61 bitrate=N/A dup=271 drop=0 speed=1.02x    frame= 4111 fps= 31 q=29.0 size=N/A time=00:02:17.19 bitrate=N/A dup=271 drop=0 speed=1.02x    frame= 4127 fps= 31 q=29.0 size=N/A time=00:02:17.68 bitrate=N/A dup=271 drop=0 speed=1.02x    frame= 4142 fps= 31 q=29.0 size=N/A time=00:02:18.17 bitrate=N/A dup=271 drop=0 speed=1.02x    frame= 4158 fps= 31 q=29.0 size=N/A time=00:02:18.70 bitrate=N/A dup=271 drop=0 speed=1.02x    frame= 4172 fps= 31 q=29.0 size=N/A time=00:02:19.20 bitrate=N/A dup=271 drop=0 speed=1.02x    frame= 4188 fps= 31 q=29.0 size=N/A time=00:02:19.75 bitrate=N/A dup=271 drop=0 speed=1.02x    frame= 4204 fps= 31 q=29.0 size=N/A time=00:02:20.24 bitrate=N/A dup=271 drop=0 speed=1.02x    frame= 4219 fps= 31 q=29.0 size=N/A time=00:02:20.75 bitrate=N/A dup=271 drop=0 speed=1.02x    frame= 4235 fps= 31 q=29.0 size=N/A time=00:02:21.24 bitrate=N/A dup=271 drop=0 speed=1.02x    frame= 4250 fps= 31 q=29.0 size=N/A time=00:02:21.82 bitrate=N/A dup=271 drop=0 speed=1.02x    frame= 4266 fps= 31 q=29.0 size=N/A time=00:02:22.33 bitrate=N/A dup=271 drop=0 speed=1.02x    frame= 4282 fps= 31 q=29.0 size=N/A time=00:02:22.82 bitrate=N/A dup=271 drop=0 speed=1.02x    frame= 4297 fps= 31 q=29.0 size=N/A time=00:02:23.36 bitrate=N/A dup=271 drop=0 speed=1.02x    [hls @ 0x55fd2fefa5c0] Opening '/home/deploy/Projects/fuzzballs/stream/roost/index6.ts' for writing
[hls @ 0x55fd2fefa5c0] Opening '/home/deploy/Projects/fuzzballs/stream/roost/index.m3u8.tmp' for writing
frame= 4312 fps= 31 q=29.0 size=N/A time=00:02:23.87 bitrate=N/A dup=271 drop=0 speed=1.02x    frame= 4328 fps= 31 q=29.0 size=N/A time=00:02:24.40 bitrate=N/A dup=271 drop=0 speed=1.02x    frame= 4343 fps= 31 q=29.0 size=N/A time=00:02:24.89 bitrate=N/A dup=271 drop=0 speed=1.02x    frame= 4359 fps= 31 q=29.0 size=N/A time=00:02:25.42 bitrate=N/A dup=271 drop=0 speed=1.02x    frame= 4373 fps= 31 q=29.0 size=N/A time=00:02:25.92 bitrate=N/A dup=271 drop=0 speed=1.02x    frame= 4388 fps= 31 q=29.0 size=N/A time=00:02:26.43 bitrate=N/A dup=271 drop=0 speed=1.02x    frame= 4404 fps= 31 q=29.0 size=N/A time=00:02:26.94 bitrate=N/A dup=271 drop=0 speed=1.02x    frame= 4420 fps= 31 q=29.0 size=N/A time=00:02:27.45 bitrate=N/A dup=271 drop=0 speed=1.02x    frame= 4434 fps= 31 q=29.0 size=N/A time=00:02:27.94 bitrate=N/A dup=271 drop=0 speed=1.02x    frame= 4450 fps= 31 q=29.0 size=N/A time=00:02:28.45 bitrate=N/A dup=271 drop=0 speed=1.02x    frame= 4466 fps= 31 q=29.0 size=N/A time=00:02:28.99 bitrate=N/A dup=271 drop=0 speed=1.02x    frame= 4481 fps= 31 q=29.0 size=N/A time=00:02:29.44 bitrate=N/A dup=271 drop=0 speed=1.02x    frame= 4497 fps= 31 q=29.0 size=N/A time=00:02:29.99 bitrate=N/A dup=271 drop=0 speed=1.02x    frame= 4512 fps= 31 q=29.0 size=N/A time=00:02:30.54 bitrate=N/A dup=271 drop=0 speed=1.02x    frame= 4527 fps= 31 q=29.0 size=N/A time=00:02:31.01 bitrate=N/A dup=271 drop=0 speed=1.02x    frame= 4543 fps= 31 q=29.0 size=N/A time=00:02:31.55 bitrate=N/A dup=271 drop=0 speed=1.02x    [hls @ 0x55fd2fefa5c0] Opening '/home/deploy/Projects/fuzzballs/stream/roost/index7.ts' for writing
[hls @ 0x55fd2fefa5c0] Opening '/home/deploy/Projects/fuzzballs/stream/roost/index.m3u8.tmp' for writing
frame= 4558 fps= 31 q=29.0 size=N/A time=00:02:32.06 bitrate=N/A dup=271 drop=0 speed=1.02x    frame= 4573 fps= 31 q=29.0 size=N/A time=00:02:32.55 bitrate=N/A dup=271 drop=0 speed=1.02x    frame= 4588 fps= 30 q=29.0 size=N/A time=00:02:33.06 bitrate=N/A dup=271 drop=0 speed=1.02x    frame= 4604 fps= 30 q=29.0 size=N/A time=00:02:33.60 bitrate=N/A dup=271 drop=0 speed=1.02x    frame= 4619 fps= 30 q=29.0 size=N/A time=00:02:34.06 bitrate=N/A dup=271 drop=0 speed=1.02x    frame= 4634 fps= 30 q=29.0 size=N/A time=00:02:34.60 bitrate=N/A dup=271 drop=0 speed=1.02x    frame= 4650 fps= 30 q=29.0 size=N/A time=00:02:35.11 bitrate=N/A dup=271 drop=0 speed=1.02x    frame= 4664 fps= 30 q=29.0 size=N/A time=00:02:35.60 bitrate=N/A dup=271 drop=0 speed=1.02x    frame= 4681 fps= 30 q=29.0 size=N/A time=00:02:36.13 bitrate=N/A dup=271 drop=0 speed=1.02x    frame= 4696 fps= 30 q=29.0 size=N/A time=00:02:36.71 bitrate=N/A dup=271 drop=0 speed=1.02x    frame= 4713 fps= 30 q=29.0 size=N/A time=00:02:37.20 bitrate=N/A dup=271 drop=0 speed=1.02x    frame= 4726 fps= 30 q=29.0 size=N/A time=00:02:37.69 bitrate=N/A dup=271 drop=0 speed=1.02x    frame= 4743 fps= 30 q=29.0 size=N/A time=00:02:38.20 bitrate=N/A dup=271 drop=0 speed=1.02x    frame= 4758 fps= 30 q=29.0 size=N/A time=00:02:38.72 bitrate=N/A dup=271 drop=0 speed=1.02x    frame= 4774 fps= 30 q=29.0 size=N/A time=00:02:39.25 bitrate=N/A dup=271 drop=0 speed=1.02x    frame= 4789 fps= 30 q=29.0 size=N/A time=00:02:39.76 bitrate=N/A dup=271 drop=0 speed=1.02x    frame= 4804 fps= 30 q=29.0 size=N/A time=00:02:40.25 bitrate=N/A dup=271 drop=0 speed=1.02x    [hls @ 0x55fd2fefa5c0] Opening '/home/deploy/Projects/fuzzballs/stream/roost/index8.ts' for writing
[hls @ 0x55fd2fefa5c0] Opening '/home/deploy/Projects/fuzzballs/stream/roost/index.m3u8.tmp' for writing
frame= 4819 fps= 30 q=29.0 size=N/A time=00:02:40.76 bitrate=N/A dup=271 drop=0 speed=1.02x    frame= 4834 fps= 30 q=29.0 size=N/A time=00:02:41.23 bitrate=N/A dup=271 drop=0 speed=1.02x    frame= 4849 fps= 30 q=29.0 size=N/A time=00:02:41.79 bitrate=N/A dup=271 drop=0 speed=1.02x    frame= 4865 fps= 30 q=29.0 size=N/A time=00:02:42.28 bitrate=N/A dup=271 drop=0 speed=1.02x    frame= 4880 fps= 30 q=29.0 size=N/A time=00:02:42.79 bitrate=N/A dup=271 drop=0 speed=1.02x    frame= 4894 fps= 30 q=29.0 size=N/A time=00:02:43.28 bitrate=N/A dup=271 drop=0 speed=1.02x    frame= 4909 fps= 30 q=29.0 size=N/A time=00:02:43.79 bitrate=N/A dup=271 drop=0 speed=1.02x    frame= 4926 fps= 30 q=29.0 size=N/A time=00:02:44.28 bitrate=N/A dup=271 drop=0 speed=1.02x    frame= 4939 fps= 30 q=29.0 size=N/A time=00:02:44.77 bitrate=N/A dup=271 drop=0 speed=1.02x    frame= 4954 fps= 30 q=29.0 size=N/A time=00:02:45.31 bitrate=N/A dup=271 drop=0 speed=1.02x    frame= 4970 fps= 30 q=29.0 size=N/A time=00:02:45.78 bitrate=N/A dup=271 drop=0 speed=1.02x    frame= 4985 fps= 30 q=29.0 size=N/A time=00:02:46.31 bitrate=N/A dup=271 drop=0 speed=1.02x    frame= 5001 fps= 30 q=29.0 size=N/A time=00:02:46.80 bitrate=N/A dup=271 drop=0 speed=1.02x    frame= 5016 fps= 30 q=29.0 size=N/A time=00:02:47.33 bitrate=N/A dup=271 drop=0 speed=1.02x    frame= 5033 fps= 30 q=29.0 size=N/A time=00:02:47.87 bitrate=N/A dup=271 drop=0 speed=1.02x    frame= 5049 fps= 30 q=29.0 size=N/A time=00:02:48.38 bitrate=N/A dup=271 drop=0 speed=1.02x    [hls @ 0x55fd2fefa5c0] Opening '/home/deploy/Projects/fuzzballs/stream/roost/index9.ts' for writing
[hls @ 0x55fd2fefa5c0] Opening '/home/deploy/Projects/fuzzballs/stream/roost/index.m3u8.tmp' for writing
frame= 5063 fps= 30 q=29.0 size=N/A time=00:02:48.89 bitrate=N/A dup=271 drop=0 speed=1.02x    frame= 5078 fps= 30 q=29.0 size=N/A time=00:02:49.40 bitrate=N/A dup=271 drop=0 speed=1.02x    frame= 5094 fps= 30 q=29.0 size=N/A time=00:02:49.94 bitrate=N/A dup=271 drop=0 speed=1.02x    frame= 5110 fps= 30 q=29.0 size=N/A time=00:02:50.49 bitrate=N/A dup=271 drop=0 speed=1.02x    frame= 5126 fps= 30 q=29.0 size=N/A time=00:02:51.00 bitrate=N/A dup=271 drop=0 speed=1.02x    frame= 5142 fps= 30 q=29.0 size=N/A time=00:02:51.49 bitrate=N/A dup=271 drop=0 speed=1.02x    frame= 5157 fps= 30 q=29.0 size=N/A time=00:02:52.07 bitrate=N/A dup=271 drop=0 speed=1.02x    frame= 5172 fps= 30 q=29.0 size=N/A time=00:02:52.54 bitrate=N/A dup=271 drop=0 speed=1.02x    frame= 5188 fps= 30 q=29.0 size=N/A time=00:02:53.05 bitrate=N/A dup=271 drop=0 speed=1.02x    frame= 5204 fps= 30 q=29.0 size=N/A time=00:02:53.56 bitrate=N/A dup=271 drop=0 speed=1.02x    frame= 5218 fps= 30 q=29.0 size=N/A time=00:02:54.05 bitrate=N/A dup=271 drop=0 speed=1.02x    frame= 5234 fps= 30 q=29.0 size=N/A time=00:02:54.59 bitrate=N/A dup=271 drop=0 speed=1.02x    frame= 5250 fps= 30 q=29.0 size=N/A time=00:02:55.12 bitrate=N/A dup=271 drop=0 speed=1.02x    frame= 5266 fps= 30 q=29.0 size=N/A time=00:02:55.63 bitrate=N/A dup=271 drop=0 speed=1.02x    frame= 5282 fps= 30 q=29.0 size=N/A time=00:02:56.17 bitrate=N/A dup=271 drop=0 speed=1.02x    frame= 5297 fps= 30 q=29.0 size=N/A time=00:02:56.66 bitrate=N/A dup=271 drop=0 speed=1.01x    [hls @ 0x55fd2fefa5c0] Opening '/home/deploy/Projects/fuzzballs/stream/roost/index0.ts' for writing
[hls @ 0x55fd2fefa5c0] Opening '/home/deploy/Projects/fuzzballs/stream/roost/index.m3u8.tmp' for writing
frame= 5313 fps= 30 q=29.0 size=N/A time=00:02:57.21 bitrate=N/A dup=271 drop=0 speed=1.01x    frame= 5328 fps= 30 q=29.0 size=N/A time=00:02:57.74 bitrate=N/A dup=271 drop=0 speed=1.01x    frame= 5344 fps= 30 q=29.0 size=N/A time=00:02:58.24 bitrate=N/A dup=271 drop=0 speed=1.01x    frame= 5359 fps= 30 q=29.0 size=N/A time=00:02:58.77 bitrate=N/A dup=271 drop=0 speed=1.02x    frame= 5374 fps= 30 q=29.0 size=N/A time=00:02:59.26 bitrate=N/A dup=271 drop=0 speed=1.01x    frame= 5389 fps= 30 q=29.0 size=N/A time=00:02:59.75 bitrate=N/A dup=271 drop=0 speed=1.01x    frame= 5404 fps= 30 q=29.0 size=N/A time=00:03:00.26 bitrate=N/A dup=271 drop=0 speed=1.01x    frame= 5420 fps= 30 q=29.0 size=N/A time=00:03:00.80 bitrate=N/A dup=271 drop=0 speed=1.01x    frame= 5435 fps= 30 q=29.0 size=N/A time=00:03:01.24 bitrate=N/A dup=271 drop=0 speed=1.01x    frame= 5450 fps= 30 q=29.0 size=N/A time=00:03:01.80 bitrate=N/A dup=271 drop=0 speed=1.01x    frame= 5465 fps= 30 q=29.0 size=N/A time=00:03:02.27 bitrate=N/A dup=271 drop=0 speed=1.01x    frame= 5480 fps= 30 q=29.0 size=N/A time=00:03:02.80 bitrate=N/A dup=271 drop=0 speed=1.01x    frame= 5497 fps= 30 q=29.0 size=N/A time=00:03:03.33 bitrate=N/A dup=271 drop=0 speed=1.01x    frame= 5511 fps= 30 q=29.0 size=N/A time=00:03:03.87 bitrate=N/A dup=271 drop=0 speed=1.01x    frame= 5526 fps= 30 q=29.0 size=N/A time=00:03:04.32 bitrate=N/A dup=271 drop=0 speed=1.01x    frame= 5543 fps= 30 q=29.0 size=N/A time=00:03:04.89 bitrate=N/A dup=271 drop=0 speed=1.01x    [hls @ 0x55fd2fefa5c0] Opening '/home/deploy/Projects/fuzzballs/stream/roost/index1.ts' for writing
[hls @ 0x55fd2fefa5c0] Opening '/home/deploy/Projects/fuzzballs/stream/roost/index.m3u8.tmp' for writing
frame= 5558 fps= 30 q=29.0 size=N/A time=00:03:05.38 bitrate=N/A dup=271 drop=0 speed=1.01x    frame= 5574 fps= 30 q=29.0 size=N/A time=00:03:05.87 bitrate=N/A dup=271 drop=0 speed=1.01x    frame= 5588 fps= 30 q=29.0 size=N/A time=00:03:06.38 bitrate=N/A dup=271 drop=0 speed=1.01x    frame= 5603 fps= 30 q=29.0 size=N/A time=00:03:06.90 bitrate=N/A dup=271 drop=0 speed=1.01x    frame= 5618 fps= 30 q=29.0 size=N/A time=00:03:07.41 bitrate=N/A dup=271 drop=0 speed=1.01x    frame= 5634 fps= 30 q=29.0 size=N/A time=00:03:07.92 bitrate=N/A dup=271 drop=0 speed=1.01x    frame= 5649 fps= 30 q=29.0 size=N/A time=00:03:08.43 bitrate=N/A dup=271 drop=0 speed=1.01x    frame= 5665 fps= 30 q=29.0 size=N/A time=00:03:08.97 bitrate=N/A dup=271 drop=0 speed=1.01x    frame= 5681 fps= 30 q=29.0 size=N/A time=00:03:09.44 bitrate=N/A dup=271 drop=0 speed=1.01x    frame= 5695 fps= 30 q=29.0 size=N/A time=00:03:09.99 bitrate=N/A dup=271 drop=0 speed=1.01x    frame= 5711 fps= 30 q=29.0 size=N/A time=00:03:10.48 bitrate=N/A dup=271 drop=0 speed=1.01x    frame= 5726 fps= 30 q=29.0 size=N/A time=00:03:10.99 bitrate=N/A dup=271 drop=0 speed=1.01x    frame= 5742 fps= 30 q=29.0 size=N/A time=00:03:11.48 bitrate=N/A dup=271 drop=0 speed=1.01x    frame= 5757 fps= 30 q=29.0 size=N/A time=00:03:12.02 bitrate=N/A dup=271 drop=0 speed=1.01x    frame= 5773 fps= 30 q=29.0 size=N/A time=00:03:12.55 bitrate=N/A dup=271 drop=0 speed=1.01x    frame= 5788 fps= 30 q=29.0 size=N/A time=00:03:13.04 bitrate=N/A dup=271 drop=0 speed=1.01x    frame= 5804 fps= 30 q=29.0 size=N/A time=00:03:13.55 bitrate=N/A dup=271 drop=0 speed=1.01x    [hls @ 0x55fd2fefa5c0] Opening '/home/deploy/Projects/fuzzballs/stream/roost/index2.ts' for writing
[hls @ 0x55fd2fefa5c0] Opening '/home/deploy/Projects/fuzzballs/stream/roost/index.m3u8.tmp' for writing
frame= 5820 fps= 30 q=29.0 size=N/A time=00:03:14.11 bitrate=N/A dup=271 drop=0 speed=1.01x    frame= 5834 fps= 30 q=29.0 size=N/A time=00:03:14.62 bitrate=N/A dup=271 drop=0 speed=1.01x    frame= 5850 fps= 30 q=29.0 size=N/A time=00:03:15.13 bitrate=N/A dup=271 drop=0 speed=1.01x    frame= 5865 fps= 30 q=29.0 size=N/A time=00:03:15.66 bitrate=N/A dup=271 drop=0 speed=1.01x    frame= 5881 fps= 30 q=29.0 size=N/A time=00:03:16.16 bitrate=N/A dup=271 drop=0 speed=1.01x    frame= 5896 fps= 30 q=29.0 size=N/A time=00:03:16.65 bitrate=N/A dup=271 drop=0 speed=1.01x    frame= 5911 fps= 30 q=29.0 size=N/A time=00:03:17.18 bitrate=N/A dup=271 drop=0 speed=1.01x    frame= 5926 fps= 30 q=29.0 size=N/A time=00:03:17.69 bitrate=N/A dup=271 drop=0 speed=1.01x    frame= 5943 fps= 30 q=29.0 size=N/A time=00:03:18.27 bitrate=N/A dup=271 drop=0 speed=1.01x    frame= 5960 fps= 30 q=29.0 size=N/A time=00:03:18.76 bitrate=N/A dup=271 drop=0 speed=1.01x    frame= 5975 fps= 30 q=29.0 size=N/A time=00:03:19.29 bitrate=N/A dup=271 drop=0 speed=1.01x    frame= 5991 fps= 30 q=29.0 size=N/A time=00:03:19.85 bitrate=N/A dup=271 drop=0 speed=1.01x    frame= 6006 fps= 30 q=29.0 size=N/A time=00:03:20.29 bitrate=N/A dup=271 drop=0 speed=1.01x    frame= 6021 fps= 30 q=29.0 size=N/A time=00:03:20.87 bitrate=N/A dup=271 drop=0 speed=1.01x    frame= 6036 fps= 30 q=29.0 size=N/A time=00:03:21.36 bitrate=N/A dup=271 drop=0 speed=1.01x    frame= 6052 fps= 30 q=29.0 size=N/A time=00:03:21.85 bitrate=N/A dup=271 drop=0 speed=1.01x    [hls @ 0x55fd2fefa5c0] Opening '/home/deploy/Projects/fuzzballs/stream/roost/index3.ts' for writing
[hls @ 0x55fd2fefa5c0] Opening '/home/deploy/Projects/fuzzballs/stream/roost/index.m3u8.tmp' for writing
frame= 6068 fps= 30 q=29.0 size=N/A time=00:03:22.41 bitrate=N/A dup=271 drop=0 speed=1.01x    frame= 6084 fps= 30 q=29.0 size=N/A time=00:03:22.88 bitrate=N/A dup=271 drop=0 speed=1.01x    frame= 6098 fps= 30 q=29.0 size=N/A time=00:03:23.43 bitrate=N/A dup=271 drop=0 speed=1.01x    frame= 6114 fps= 30 q=29.0 size=N/A time=00:03:23.92 bitrate=N/A dup=271 drop=0 speed=1.01x    frame= 6129 fps= 30 q=29.0 size=N/A time=00:03:24.43 bitrate=N/A dup=271 drop=0 speed=1.01x    frame= 6145 fps= 30 q=29.0 size=N/A time=00:03:24.94 bitrate=N/A dup=271 drop=0 speed=1.01x    frame= 6160 fps= 30 q=29.0 size=N/A time=00:03:25.44 bitrate=N/A dup=271 drop=0 speed=1.01x    frame= 6174 fps= 30 q=29.0 size=N/A time=00:03:25.97 bitrate=N/A dup=271 drop=0 speed=1.01x    frame= 6191 fps= 30 q=29.0 size=N/A time=00:03:26.46 bitrate=N/A dup=271 drop=0 speed=1.01x    frame= 6205 fps= 30 q=29.0 size=N/A time=00:03:26.97 bitrate=N/A dup=271 drop=0 speed=1.01x    frame= 6220 fps= 30 q=29.0 size=N/A time=00:03:27.46 bitrate=N/A dup=271 drop=0 speed=1.01x    frame= 6236 fps= 30 q=29.0 size=N/A time=00:03:28.00 bitrate=N/A dup=271 drop=0 speed=1.01x    frame= 6251 fps= 30 q=29.0 size=N/A time=00:03:28.51 bitrate=N/A dup=271 drop=0 speed=1.01x    frame= 6266 fps= 30 q=29.0 size=N/A time=00:03:29.00 bitrate=N/A dup=271 drop=0 speed=1.01x    frame= 6282 fps= 30 q=29.0 size=N/A time=00:03:29.53 bitrate=N/A dup=271 drop=0 speed=1.01x    frame= 6297 fps= 30 q=29.0 size=N/A time=00:03:30.04 bitrate=N/A dup=271 drop=0 speed=1.01x    [hls @ 0x55fd2fefa5c0] Opening '/home/deploy/Projects/fuzzballs/stream/roost/index4.ts' for writing
[hls @ 0x55fd2fefa5c0] Opening '/home/deploy/Projects/fuzzballs/stream/roost/index.m3u8.tmp' for writing
frame= 6313 fps= 30 q=29.0 size=N/A time=00:03:30.53 bitrate=N/A dup=271 drop=0 speed=1.01x    frame= 6328 fps= 30 q=29.0 size=N/A time=00:03:31.09 bitrate=N/A dup=271 drop=0 speed=1.01x    frame= 6344 fps= 30 q=29.0 size=N/A time=00:03:31.58 bitrate=N/A dup=271 drop=0 speed=1.01x    frame= 6359 fps= 30 q=29.0 size=N/A time=00:03:32.09 bitrate=N/A dup=271 drop=0 speed=1.01x    frame= 6375 fps= 30 q=29.0 size=N/A time=00:03:32.62 bitrate=N/A dup=271 drop=0 speed=1.01x    frame= 6390 fps= 30 q=29.0 size=N/A time=00:03:33.12 bitrate=N/A dup=271 drop=0 speed=1.01x    frame= 6405 fps= 30 q=29.0 size=N/A time=00:03:33.65 bitrate=N/A dup=271 drop=0 speed=1.01x    frame= 6421 fps= 30 q=29.0 size=N/A time=00:03:34.16 bitrate=N/A dup=271 drop=0 speed=1.01x    frame= 6436 fps= 30 q=29.0 size=N/A time=00:03:34.65 bitrate=N/A dup=271 drop=0 speed=1.01x    frame= 6452 fps= 30 q=29.0 size=N/A time=00:03:35.18 bitrate=N/A dup=271 drop=0 speed=1.01x    frame= 6467 fps= 30 q=29.0 size=N/A time=00:03:35.70 bitrate=N/A dup=271 drop=0 speed=1.01x    frame= 6482 fps= 30 q=29.0 size=N/A time=00:03:36.23 bitrate=N/A dup=271 drop=0 speed=1.01x    frame= 6498 fps= 30 q=29.0 size=N/A time=00:03:36.72 bitrate=N/A dup=271 drop=0 speed=1.01x    frame= 6512 fps= 30 q=29.0 size=N/A time=00:03:37.23 bitrate=N/A dup=271 drop=0 speed=1.01x    frame= 6526 fps= 30 q=29.0 size=N/A time=00:03:37.70 bitrate=N/A dup=271 drop=0 speed=1.01x    frame= 6544 fps= 30 q=29.0 size=N/A time=00:03:38.24 bitrate=N/A dup=271 drop=0 speed=1.01x    [hls @ 0x55fd2fefa5c0] Opening '/home/deploy/Projects/fuzzballs/stream/roost/index5.ts' for writing
[hls @ 0x55fd2fefa5c0] Opening '/home/deploy/Projects/fuzzballs/stream/roost/index.m3u8.tmp' for writing
frame= 6559 fps= 30 q=29.0 size=N/A time=00:03:38.77 bitrate=N/A dup=271 drop=0 speed=1.01x    frame= 6575 fps= 30 q=29.0 size=N/A time=00:03:39.28 bitrate=N/A dup=271 drop=0 speed=1.01x    frame= 6590 fps= 30 q=29.0 size=N/A time=00:03:39.79 bitrate=N/A dup=271 drop=0 speed=1.01x    frame= 6605 fps= 30 q=29.0 size=N/A time=00:03:40.33 bitrate=N/A dup=271 drop=0 speed=1.01x    frame= 6621 fps= 30 q=29.0 size=N/A time=00:03:40.86 bitrate=N/A dup=271 drop=0 speed=1.01x    frame= 6637 fps= 30 q=29.0 size=N/A time=00:03:41.37 bitrate=N/A dup=271 drop=0 speed=1.01x    frame= 6653 fps= 30 q=29.0 size=N/A time=00:03:41.86 bitrate=N/A dup=271 drop=0 speed=1.01x    frame= 6668 fps= 30 q=29.0 size=N/A time=00:03:42.37 bitrate=N/A dup=271 drop=0 speed=1.01x    frame= 6682 fps= 30 q=29.0 size=N/A time=00:03:42.91 bitrate=N/A dup=271 drop=0 speed=1.01x    frame= 6697 fps= 30 q=29.0 size=N/A time=00:03:43.38 bitrate=N/A dup=271 drop=0 speed=1.01x    frame= 6712 fps= 30 q=29.0 size=N/A time=00:03:43.91 bitrate=N/A dup=271 drop=0 speed=1.01x    frame= 6727 fps= 30 q=29.0 size=N/A time=00:03:44.40 bitrate=N/A dup=271 drop=0 speed=1.01x    frame= 6743 fps= 30 q=29.0 size=N/A time=00:03:44.89 bitrate=N/A dup=271 drop=0 speed=1.01x    frame= 6759 fps= 30 q=29.0 size=N/A time=00:03:45.42 bitrate=N/A dup=271 drop=0 speed=1.01x    frame= 6774 fps= 30 q=29.0 size=N/A time=00:03:45.92 bitrate=N/A dup=271 drop=0 speed=1.01x    frame= 6789 fps= 30 q=29.0 size=N/A time=00:03:46.43 bitrate=N/A dup=271 drop=0 speed=1.01x    frame= 6804 fps= 30 q=29.0 size=N/A time=00:03:46.94 bitrate=N/A dup=271 drop=0 speed=1.01x    [hls @ 0x55fd2fefa5c0] Opening '/home/deploy/Projects/fuzzballs/stream/roost/index6.ts' for writing
[hls @ 0x55fd2fefa5c0] Opening '/home/deploy/Projects/fuzzballs/stream/roost/index.m3u8.tmp' for writing
frame= 6820 fps= 30 q=29.0 size=N/A time=00:03:47.45 bitrate=N/A dup=271 drop=0 speed=1.01x    frame= 6834 fps= 30 q=29.0 size=N/A time=00:03:47.94 bitrate=N/A dup=271 drop=0 speed=1.01x    frame= 6851 fps= 30 q=29.0 size=N/A time=00:03:48.48 bitrate=N/A dup=271 drop=0 speed=1.01x    frame= 6866 fps= 30 q=29.0 size=N/A time=00:03:49.03 bitrate=N/A dup=271 drop=0 speed=1.01x    frame= 6881 fps= 30 q=29.0 size=N/A time=00:03:49.52 bitrate=N/A dup=271 drop=0 speed=1.01x    frame= 6897 fps= 30 q=29.0 size=N/A time=00:03:50.03 bitrate=N/A dup=271 drop=0 speed=1.01x    frame= 6913 fps= 30 q=29.0 size=N/A time=00:03:50.52 bitrate=N/A dup=271 drop=0 speed=1.01x    frame= 6927 fps= 30 q=29.0 size=N/A time=00:03:51.04 bitrate=N/A dup=271 drop=0 speed=1.01x    frame= 6943 fps= 30 q=29.0 size=N/A time=00:03:51.55 bitrate=N/A dup=271 drop=0 speed=1.01x    frame= 6957 fps= 30 q=29.0 size=N/A time=00:03:52.06 bitrate=N/A dup=271 drop=0 speed=1.01x    frame= 6973 fps= 30 q=29.0 size=N/A time=00:03:52.57 bitrate=N/A dup=271 drop=0 speed=1.01x    frame= 6989 fps= 30 q=29.0 size=N/A time=00:03:53.10 bitrate=N/A dup=271 drop=0 speed=1.01x    frame= 7004 fps= 30 q=29.0 size=N/A time=00:03:53.57 bitrate=N/A dup=271 drop=0 speed=1.01x    frame= 7019 fps= 30 q=29.0 size=N/A time=00:03:54.11 bitrate=N/A dup=271 drop=0 speed=1.01x    frame= 7035 fps= 30 q=29.0 size=N/A time=00:03:54.60 bitrate=N/A dup=271 drop=0 speed=1.01x    frame= 7049 fps= 30 q=29.0 size=N/A time=00:03:55.13 bitrate=N/A dup=271 drop=0 speed=1.01x    [hls @ 0x55fd2fefa5c0] Opening '/home/deploy/Projects/fuzzballs/stream/roost/index7.ts' for writing
[hls @ 0x55fd2fefa5c0] Opening '/home/deploy/Projects/fuzzballs/stream/roost/index.m3u8.tmp' for writing
frame= 7064 fps= 30 q=29.0 size=N/A time=00:03:55.60 bitrate=N/A dup=271 drop=0 speed=1.01x    frame= 7081 fps= 30 q=29.0 size=N/A time=00:03:56.11 bitrate=N/A dup=271 drop=0 speed=1.01x    frame= 7095 fps= 30 q=29.0 size=N/A time=00:03:56.62 bitrate=N/A dup=271 drop=0 speed=1.01x    frame= 7110 fps= 30 q=29.0 size=N/A time=00:03:57.14 bitrate=N/A dup=271 drop=0 speed=1.01x    frame= 7125 fps= 30 q=29.0 size=N/A time=00:03:57.67 bitrate=N/A dup=271 drop=0 speed=1.01x    frame= 7141 fps= 30 q=29.0 size=N/A time=00:03:58.18 bitrate=N/A dup=271 drop=0 speed=1.01x    frame= 7156 fps= 30 q=29.0 size=N/A time=00:03:58.67 bitrate=N/A dup=271 drop=0 speed=1.01x    frame= 7173 fps= 30 q=29.0 size=N/A time=00:03:59.25 bitrate=N/A dup=271 drop=0 speed=1.01x    frame= 7188 fps= 30 q=29.0 size=N/A time=00:03:59.74 bitrate=N/A dup=271 drop=0 speed=1.01x    frame= 7203 fps= 30 q=29.0 size=N/A time=00:04:00.23 bitrate=N/A dup=271 drop=0 speed=1.01x    frame= 7218 fps= 30 q=29.0 size=N/A time=00:04:00.74 bitrate=N/A dup=271 drop=0 speed=1.01x    frame= 7234 fps= 30 q=29.0 size=N/A time=00:04:01.28 bitrate=N/A dup=271 drop=0 speed=1.01x    frame= 7249 fps= 30 q=29.0 size=N/A time=00:04:01.74 bitrate=N/A dup=271 drop=0 speed=1.01x    frame= 7263 fps= 30 q=29.0 size=N/A time=00:04:02.24 bitrate=N/A dup=271 drop=0 speed=1.01x    frame= 7276 fps= 30 q=29.0 size=N/A time=00:04:02.70 bitrate=N/A dup=271 drop=0 speed=1.01x    frame= 7295 fps= 30 q=29.0 size=N/A time=00:04:03.28 bitrate=N/A dup=271 drop=0 speed=1.01x    [hls @ 0x55fd2fefa5c0] Opening '/home/deploy/Projects/fuzzballs/stream/roost/index8.ts' for writing
[hls @ 0x55fd2fefa5c0] Opening '/home/deploy/Projects/fuzzballs/stream/roost/index.m3u8.tmp' for writing
frame= 7311 fps= 30 q=29.0 size=N/A time=00:04:03.79 bitrate=N/A dup=271 drop=0 speed=1.01x    frame= 7325 fps= 30 q=29.0 size=N/A time=00:04:04.33 bitrate=N/A dup=271 drop=0 speed=1.01x    frame= 7341 fps= 30 q=29.0 size=N/A time=00:04:04.84 bitrate=N/A dup=271 drop=0 speed=1.01x    frame= 7357 fps= 30 q=29.0 size=N/A time=00:04:05.37 bitrate=N/A dup=271 drop=0 speed=1.01x    frame= 7372 fps= 30 q=29.0 size=N/A time=00:04:05.88 bitrate=N/A dup=271 drop=0 speed=1.01x    frame= 7388 fps= 30 q=29.0 size=N/A time=00:04:06.40 bitrate=N/A dup=271 drop=0 speed=1.01x    frame= 7403 fps= 30 q=29.0 size=N/A time=00:04:06.95 bitrate=N/A dup=271 drop=0 speed=1.01x    frame= 7419 fps= 30 q=29.0 size=N/A time=00:04:07.42 bitrate=N/A dup=271 drop=0 speed=1.01x    frame= 7434 fps= 30 q=29.0 size=N/A time=00:04:07.93 bitrate=N/A dup=271 drop=0 speed=1.01x    frame= 7450 fps= 30 q=29.0 size=N/A time=00:04:08.46 bitrate=N/A dup=271 drop=0 speed=1.01x    frame= 7464 fps= 30 q=29.0 size=N/A time=00:04:08.96 bitrate=N/A dup=271 drop=0 speed=1.01x    frame= 7480 fps= 30 q=29.0 size=N/A time=00:04:09.47 bitrate=N/A dup=271 drop=0 speed=1.01x    frame= 7495 fps= 30 q=29.0 size=N/A time=00:04:09.98 bitrate=N/A dup=271 drop=0 speed=1.01x    frame= 7510 fps= 30 q=29.0 size=N/A time=00:04:10.49 bitrate=N/A dup=271 drop=0 speed=1.01x    frame= 7527 fps= 30 q=29.0 size=N/A time=00:04:11.00 bitrate=N/A dup=271 drop=0 speed=1.01x    frame= 7542 fps= 30 q=29.0 size=N/A time=00:04:11.52 bitrate=N/A dup=271 drop=0 speed=1.01x    [hls @ 0x55fd2fefa5c0] Opening '/home/deploy/Projects/fuzzballs/stream/roost/index9.ts' for writing
[hls @ 0x55fd2fefa5c0] Opening '/home/deploy/Projects/fuzzballs/stream/roost/index.m3u8.tmp' for writing
frame= 7557 fps= 30 q=29.0 size=N/A time=00:04:12.07 bitrate=N/A dup=271 drop=0 speed=1.01x    frame= 7573 fps= 30 q=29.0 size=N/A time=00:04:12.58 bitrate=N/A dup=271 drop=0 speed=1.01x    frame= 7587 fps= 30 q=29.0 size=N/A time=00:04:13.03 bitrate=N/A dup=271 drop=0 speed=1.01x    frame= 7604 fps= 30 q=29.0 size=N/A time=00:04:13.56 bitrate=N/A dup=271 drop=0 speed=1.01x    frame= 7618 fps= 30 q=29.0 size=N/A time=00:04:14.08 bitrate=N/A dup=271 drop=0 speed=1.01x    frame= 7633 fps= 30 q=29.0 size=N/A time=00:04:14.59 bitrate=N/A dup=271 drop=0 speed=1.01x    frame= 7649 fps= 30 q=29.0 size=N/A time=00:04:15.12 bitrate=N/A dup=271 drop=0 speed=1.01x    frame= 7666 fps= 30 q=29.0 size=N/A time=00:04:15.65 bitrate=N/A dup=271 drop=0 speed=1.01x    frame= 7681 fps= 30 q=29.0 size=N/A time=00:04:16.12 bitrate=N/A dup=271 drop=0 speed=1.01x    frame= 7695 fps= 30 q=29.0 size=N/A time=00:04:16.66 bitrate=N/A dup=271 drop=0 speed=1.01x    frame= 7711 fps= 30 q=29.0 size=N/A time=00:04:17.19 bitrate=N/A dup=271 drop=0 speed=1.01x    frame= 7726 fps= 30 q=29.0 size=N/A time=00:04:17.70 bitrate=N/A dup=271 drop=0 speed=1.01x    frame= 7743 fps= 30 q=29.0 size=N/A time=00:04:18.24 bitrate=N/A dup=271 drop=0 speed=1.01x    frame= 7759 fps= 30 q=29.0 size=N/A time=00:04:18.77 bitrate=N/A dup=271 drop=0 speed=1.01x    frame= 7774 fps= 30 q=29.0 size=N/A time=00:04:19.28 bitrate=N/A dup=271 drop=0 speed=1.01x    frame= 7791 fps= 30 q=29.0 size=N/A time=00:04:19.79 bitrate=N/A dup=271 drop=0 speed=1.01x    frame= 7806 fps= 30 q=29.0 size=N/A time=00:04:20.33 bitrate=N/A dup=271 drop=0 speed=1.01x    [hls @ 0x55fd2fefa5c0] Opening '/home/deploy/Projects/fuzzballs/stream/roost/index0.ts' for writing
[hls @ 0x55fd2fefa5c0] Opening '/home/deploy/Projects/fuzzballs/stream/roost/index.m3u8.tmp' for writing
frame= 7821 fps= 30 q=29.0 size=N/A time=00:04:20.84 bitrate=N/A dup=271 drop=0 speed=1.01x    frame= 7836 fps= 30 q=29.0 size=N/A time=00:04:21.35 bitrate=N/A dup=271 drop=0 speed=1.01x    frame= 7851 fps= 30 q=29.0 size=N/A time=00:04:21.82 bitrate=N/A dup=271 drop=0 speed=1.01x    frame= 7866 fps= 30 q=29.0 size=N/A time=00:04:22.33 bitrate=N/A dup=271 drop=0 speed=1.01x    frame= 7882 fps= 30 q=29.0 size=N/A time=00:04:22.86 bitrate=N/A dup=271 drop=0 speed=1.01x    frame= 7896 fps= 30 q=29.0 size=N/A time=00:04:23.36 bitrate=N/A dup=271 drop=0 speed=1.01x    frame= 7912 fps= 30 q=29.0 size=N/A time=00:04:23.91 bitrate=N/A dup=271 drop=0 speed=1.01x    frame= 7928 fps= 30 q=29.0 size=N/A time=00:04:24.38 bitrate=N/A dup=271 drop=0 speed=1.01x    frame= 7943 fps= 30 q=29.0 size=N/A time=00:04:24.91 bitrate=N/A dup=271 drop=0 speed=1.01x    frame= 7959 fps= 30 q=29.0 size=N/A time=00:04:25.42 bitrate=N/A dup=271 drop=0 speed=1.01x    frame= 7974 fps= 30 q=29.0 size=N/A time=00:04:25.96 bitrate=N/A dup=271 drop=0 speed=1.01x    frame= 7990 fps= 30 q=29.0 size=N/A time=00:04:26.47 bitrate=N/A dup=271 drop=0 speed=1.01x    frame= 8005 fps= 30 q=29.0 size=N/A time=00:04:26.96 bitrate=N/A dup=271 drop=0 speed=1.01x    frame= 8020 fps= 30 q=29.0 size=N/A time=00:04:27.47 bitrate=N/A dup=271 drop=0 speed=1.01x    frame= 8036 fps= 30 q=29.0 size=N/A time=00:04:27.96 bitrate=N/A dup=271 drop=0 speed=1.01x    frame= 8050 fps= 30 q=29.0 size=N/A time=00:04:28.48 bitrate=N/A dup=271 drop=0 speed=1.01x    [hls @ 0x55fd2fefa5c0] Opening '/home/deploy/Projects/fuzzballs/stream/roost/index1.ts' for writing
[hls @ 0x55fd2fefa5c0] Opening '/home/deploy/Projects/fuzzballs/stream/roost/index.m3u8.tmp' for writing
frame= 8067 fps= 30 q=29.0 size=N/A time=00:04:29.01 bitrate=N/A dup=271 drop=0 speed=1.01x    frame= 8080 fps= 30 q=29.0 size=N/A time=00:04:29.50 bitrate=N/A dup=271 drop=0 speed=1.01x    frame= 8096 fps= 30 q=29.0 size=N/A time=00:04:30.01 bitrate=N/A dup=271 drop=0 speed=1.01x    frame= 8113 fps= 30 q=29.0 size=N/A time=00:04:30.54 bitrate=N/A dup=271 drop=0 speed=1.01x    frame= 8127 fps= 30 q=29.0 size=N/A time=00:04:31.01 bitrate=N/A dup=271 drop=0 speed=1.01x    frame= 8142 fps= 30 q=29.0 size=N/A time=00:04:31.55 bitrate=N/A dup=271 drop=0 speed=1.01x    frame= 8157 fps= 30 q=29.0 size=N/A time=00:04:32.06 bitrate=N/A dup=271 drop=0 speed=1.01x    frame= 8173 fps= 30 q=29.0 size=N/A time=00:04:32.57 bitrate=N/A dup=271 drop=0 speed=1.01x    frame= 8188 fps= 30 q=29.0 size=N/A time=00:04:33.08 bitrate=N/A dup=271 drop=0 speed=1.01x    frame= 8203 fps= 30 q=29.0 size=N/A time=00:04:33.60 bitrate=N/A dup=271 drop=0 speed=1.01x    frame= 8220 fps= 30 q=29.0 size=N/A time=00:04:34.15 bitrate=N/A dup=272 drop=0 speed=1.01x    frame= 8235 fps= 30 q=29.0 size=N/A time=00:04:34.60 bitrate=N/A dup=272 drop=0 speed=1.01x    frame= 8251 fps= 30 q=29.0 size=N/A time=00:04:35.13 bitrate=N/A dup=272 drop=0 speed=1.01x    frame= 8267 fps= 30 q=29.0 size=N/A time=00:04:35.66 bitrate=N/A dup=272 drop=0 speed=1.01x    frame= 8282 fps= 30 q=29.0 size=N/A time=00:04:36.20 bitrate=N/A dup=272 drop=0 speed=1.01x    frame= 8298 fps= 30 q=29.0 size=N/A time=00:04:36.71 bitrate=N/A dup=272 drop=0 speed=1.01x    [hls @ 0x55fd2fefa5c0] Opening '/home/deploy/Projects/fuzzballs/stream/roost/index2.ts' for writing
[hls @ 0x55fd2fefa5c0] Opening '/home/deploy/Projects/fuzzballs/stream/roost/index.m3u8.tmp' for writing
frame= 8313 fps= 30 q=29.0 size=N/A time=00:04:37.20 bitrate=N/A dup=272 drop=0 speed=1.01x    frame= 8328 fps= 30 q=29.0 size=N/A time=00:04:37.69 bitrate=N/A dup=272 drop=0 speed=1.01x    frame= 8344 fps= 30 q=29.0 size=N/A time=00:04:38.20 bitrate=N/A dup=272 drop=0 speed=1.01x    frame= 8359 fps= 30 q=29.0 size=N/A time=00:04:38.74 bitrate=N/A dup=272 drop=0 speed=1.01x    frame= 8375 fps= 30 q=29.0 size=N/A time=00:04:39.27 bitrate=N/A dup=272 drop=0 speed=1.01x    frame= 8390 fps= 30 q=29.0 size=N/A time=00:04:39.76 bitrate=N/A dup=272 drop=0 speed=1.01x    frame= 8406 fps= 30 q=29.0 size=N/A time=00:04:40.32 bitrate=N/A dup=272 drop=0 speed=1.01x    frame= 8421 fps= 30 q=29.0 size=N/A time=00:04:40.78 bitrate=N/A dup=272 drop=0 speed=1.01x    frame= 8436 fps= 30 q=29.0 size=N/A time=00:04:41.32 bitrate=N/A dup=272 drop=0 speed=1.01x    frame= 8452 fps= 30 q=29.0 size=N/A time=00:04:41.85 bitrate=N/A dup=272 drop=0 speed=1.01x    frame= 8467 fps= 30 q=29.0 size=N/A time=00:04:42.32 bitrate=N/A dup=272 drop=0 speed=1.01x    frame= 8482 fps= 30 q=29.0 size=N/A time=00:04:42.83 bitrate=N/A dup=272 drop=0 speed=1.01x    frame= 8497 fps= 30 q=29.0 size=N/A time=00:04:43.34 bitrate=N/A dup=272 drop=0 speed=1.01x    frame= 8513 fps= 30 q=29.0 size=N/A time=00:04:43.90 bitrate=N/A dup=272 drop=0 speed=1.01x    frame= 8529 fps= 30 q=29.0 size=N/A time=00:04:44.41 bitrate=N/A dup=272 drop=0 speed=1.01x    frame= 8544 fps= 30 q=29.0 size=N/A time=00:04:44.90 bitrate=N/A dup=272 drop=0 speed=1.01x    [hls @ 0x55fd2fefa5c0] Opening '/home/deploy/Projects/fuzzballs/stream/roost/index3.ts' for writing
[hls @ 0x55fd2fefa5c0] Opening '/home/deploy/Projects/fuzzballs/stream/roost/index.m3u8.tmp' for writing
frame= 8558 fps= 30 q=29.0 size=N/A time=00:04:45.37 bitrate=N/A dup=272 drop=0 speed=1.01x    frame= 8574 fps= 30 q=29.0 size=N/A time=00:04:45.93 bitrate=N/A dup=272 drop=0 speed=1.01x    frame= 8590 fps= 30 q=29.0 size=N/A time=00:04:46.44 bitrate=N/A dup=272 drop=0 speed=1.01x    frame= 8606 fps= 30 q=29.0 size=N/A time=00:04:46.95 bitrate=N/A dup=272 drop=0 speed=1.01x    frame= 8619 fps= 30 q=29.0 size=N/A time=00:04:47.42 bitrate=N/A dup=272 drop=0 speed=1.01x    frame= 8635 fps= 30 q=29.0 size=N/A time=00:04:47.91 bitrate=N/A dup=272 drop=0 speed=1.01x    frame= 8651 fps= 30 q=29.0 size=N/A time=00:04:48.44 bitrate=N/A dup=272 drop=0 speed=1.01x    frame= 8665 fps= 30 q=29.0 size=N/A time=00:04:48.96 bitrate=N/A dup=272 drop=0 speed=1.01x    frame= 8681 fps= 30 q=29.0 size=N/A time=00:04:49.53 bitrate=N/A dup=272 drop=0 speed=1.01x    frame= 8697 fps= 30 q=29.0 size=N/A time=00:04:50.00 bitrate=N/A dup=272 drop=0 speed=1.01x    frame= 8712 fps= 30 q=29.0 size=N/A time=00:04:50.49 bitrate=N/A dup=272 drop=0 speed=1.01x    frame= 8728 fps= 30 q=29.0 size=N/A time=00:04:51.02 bitrate=N/A dup=272 drop=0 speed=1.01x    frame= 8743 fps= 30 q=29.0 size=N/A time=00:04:51.56 bitrate=N/A dup=272 drop=0 speed=1.01x    frame= 8759 fps= 30 q=29.0 size=N/A time=00:04:52.07 bitrate=N/A dup=272 drop=0 speed=1.01x    frame= 8774 fps= 30 q=29.0 size=N/A time=00:04:52.58 bitrate=N/A dup=272 drop=0 speed=1.01x    frame= 8790 fps= 30 q=29.0 size=N/A time=00:04:53.12 bitrate=N/A dup=272 drop=0 speed=1.01x    frame= 8805 fps= 30 q=29.0 size=N/A time=00:04:53.67 bitrate=N/A dup=272 drop=0 speed=1.01x    [hls @ 0x55fd2fefa5c0] Opening '/home/deploy/Projects/fuzzballs/stream/roost/index4.ts' for writing
[hls @ 0x55fd2fefa5c0] Opening '/home/deploy/Projects/fuzzballs/stream/roost/index.m3u8.tmp' for writing
frame= 8822 fps= 30 q=29.0 size=N/A time=00:04:54.14 bitrate=N/A dup=272 drop=0 speed=1.01x    frame= 8836 fps= 30 q=29.0 size=N/A time=00:04:54.65 bitrate=N/A dup=272 drop=0 speed=1.01x    frame= 8851 fps= 30 q=29.0 size=N/A time=00:04:55.16 bitrate=N/A dup=272 drop=0 speed=1.01x    frame= 8867 fps= 30 q=29.0 size=N/A time=00:04:55.65 bitrate=N/A dup=272 drop=0 speed=1.01x    frame= 8881 fps= 30 q=29.0 size=N/A time=00:04:56.19 bitrate=N/A dup=272 drop=0 speed=1.01x    frame= 8897 fps= 30 q=29.0 size=N/A time=00:04:56.68 bitrate=N/A dup=272 drop=0 speed=1.01x    frame= 8913 fps= 30 q=29.0 size=N/A time=00:04:57.21 bitrate=N/A dup=272 drop=0 speed=1.01x    frame= 8927 fps= 30 q=29.0 size=N/A time=00:04:57.70 bitrate=N/A dup=272 drop=0 speed=1.01x    frame= 8945 fps= 30 q=29.0 size=N/A time=00:04:58.26 bitrate=N/A dup=272 drop=0 speed=1.01x    frame= 8959 fps= 30 q=29.0 size=N/A time=00:04:58.79 bitrate=N/A dup=272 drop=0 speed=1.01x    frame= 8975 fps= 30 q=29.0 size=N/A time=00:04:59.28 bitrate=N/A dup=272 drop=0 speed=1.01x    frame= 8990 fps= 30 q=29.0 size=N/A time=00:04:59.77 bitrate=N/A dup=272 drop=0 speed=1.01x    frame= 9005 fps= 30 q=29.0 size=N/A time=00:05:00.33 bitrate=N/A dup=272 drop=0 speed=1.01x    frame= 9020 fps= 30 q=29.0 size=N/A time=00:05:00.77 bitrate=N/A dup=272 drop=0 speed=1.01x    frame= 9036 fps= 30 q=29.0 size=N/A time=00:05:01.31 bitrate=N/A dup=272 drop=0 speed=1.01x    frame= 9052 fps= 30 q=29.0 size=N/A time=00:05:01.82 bitrate=N/A dup=272 drop=0 speed=1.01x    [hls @ 0x55fd2fefa5c0] Opening '/home/deploy/Projects/fuzzballs/stream/roost/index5.ts' for writing
[hls @ 0x55fd2fefa5c0] Opening '/home/deploy/Projects/fuzzballs/stream/roost/index.m3u8.tmp' for writing
frame= 9067 fps= 30 q=29.0 size=N/A time=00:05:02.31 bitrate=N/A dup=272 drop=0 speed=1.01x    frame= 9081 fps= 30 q=29.0 size=N/A time=00:05:02.82 bitrate=N/A dup=272 drop=0 speed=1.01x    frame= 9096 fps= 30 q=29.0 size=N/A time=00:05:03.33 bitrate=N/A dup=272 drop=0 speed=1.01x    frame= 9111 fps= 30 q=29.0 size=N/A time=00:05:03.82 bitrate=N/A dup=272 drop=0 speed=1.01x    frame= 9127 fps= 30 q=29.0 size=N/A time=00:05:04.36 bitrate=N/A dup=272 drop=0 speed=1.01x    frame= 9142 fps= 30 q=29.0 size=N/A time=00:05:04.83 bitrate=N/A dup=272 drop=0 speed=1.01x    frame= 9158 fps= 30 q=29.0 size=N/A time=00:05:05.36 bitrate=N/A dup=272 drop=0 speed=1.01x    frame= 9172 fps= 30 q=29.0 size=N/A time=00:05:05.85 bitrate=N/A dup=272 drop=0 speed=1.01x    frame= 9188 fps= 30 q=29.0 size=N/A time=00:05:06.38 bitrate=N/A dup=272 drop=0 speed=1.01x    frame= 9203 fps= 30 q=29.0 size=N/A time=00:05:06.88 bitrate=N/A dup=272 drop=0 speed=1.01x    frame= 9218 fps= 30 q=29.0 size=N/A time=00:05:07.41 bitrate=N/A dup=272 drop=0 speed=1.01x    frame= 9234 fps= 30 q=29.0 size=N/A time=00:05:07.92 bitrate=N/A dup=272 drop=0 speed=1.01x    frame= 9249 fps= 30 q=29.0 size=N/A time=00:05:08.41 bitrate=N/A dup=272 drop=0 speed=1.01x    frame= 9264 fps= 30 q=29.0 size=N/A time=00:05:08.92 bitrate=N/A dup=272 drop=0 speed=1.01x    frame= 9281 fps= 30 q=29.0 size=N/A time=00:05:09.46 bitrate=N/A dup=272 drop=0 speed=1.01x    frame= 9295 fps= 30 q=29.0 size=N/A time=00:05:09.99 bitrate=N/A dup=272 drop=0 speed=1.01x    [hls @ 0x55fd2fefa5c0] Opening '/home/deploy/Projects/fuzzballs/stream/roost/index6.ts' for writing
[hls @ 0x55fd2fefa5c0] Opening '/home/deploy/Projects/fuzzballs/stream/roost/index.m3u8.tmp' for writing
frame= 9311 fps= 30 q=29.0 size=N/A time=00:05:10.46 bitrate=N/A dup=272 drop=0 speed=1.01x    frame= 9326 fps= 30 q=29.0 size=N/A time=00:05:10.97 bitrate=N/A dup=272 drop=0 speed=1.01x    frame= 9341 fps= 30 q=29.0 size=N/A time=00:05:11.50 bitrate=N/A dup=272 drop=0 speed=1.01x    frame= 9356 fps= 30 q=29.0 size=N/A time=00:05:11.95 bitrate=N/A dup=272 drop=0 speed=1.01x    frame= 9372 fps= 30 q=29.0 size=N/A time=00:05:12.51 bitrate=N/A dup=272 drop=0 speed=1.01x    frame= 9387 fps= 30 q=29.0 size=N/A time=00:05:13.00 bitrate=N/A dup=272 drop=0 speed=1.01x    frame= 9402 fps= 30 q=29.0 size=N/A time=00:05:13.53 bitrate=N/A dup=272 drop=0 speed=1.01x    frame= 9417 fps= 30 q=29.0 size=N/A time=00:05:14.00 bitrate=N/A dup=272 drop=0 speed=1.01x    frame= 9434 fps= 30 q=29.0 size=N/A time=00:05:14.56 bitrate=N/A dup=272 drop=0 speed=1.01x    frame= 9449 fps= 30 q=29.0 size=N/A time=00:05:15.11 bitrate=N/A dup=272 drop=0 speed=1.01x    frame= 9465 fps= 30 q=29.0 size=N/A time=00:05:15.60 bitrate=N/A dup=272 drop=0 speed=1.01x    frame= 9480 fps= 30 q=29.0 size=N/A time=00:05:16.09 bitrate=N/A dup=272 drop=0 speed=1.01x    frame= 9495 fps= 30 q=29.0 size=N/A time=00:05:16.62 bitrate=N/A dup=272 drop=0 speed=1.01x    frame= 9510 fps= 30 q=29.0 size=N/A time=00:05:17.12 bitrate=N/A dup=272 drop=0 speed=1.01x    frame= 9525 fps= 30 q=29.0 size=N/A time=00:05:17.65 bitrate=N/A dup=272 drop=0 speed=1.01x    frame= 9542 fps= 30 q=29.0 size=N/A time=00:05:18.16 bitrate=N/A dup=272 drop=0 speed=1.01x    [hls @ 0x55fd2fefa5c0] Opening '/home/deploy/Projects/fuzzballs/stream/roost/index7.ts' for writing
[hls @ 0x55fd2fefa5c0] Opening '/home/deploy/Projects/fuzzballs/stream/roost/index.m3u8.tmp' for writing
frame= 9558 fps= 30 q=29.0 size=N/A time=00:05:18.67 bitrate=N/A dup=272 drop=0 speed=1.01x    frame= 9573 fps= 30 q=29.0 size=N/A time=00:05:19.25 bitrate=N/A dup=272 drop=0 speed=1.01x    frame= 9590 fps= 30 q=29.0 size=N/A time=00:05:19.74 bitrate=N/A dup=272 drop=0 speed=1.01x    frame= 9604 fps= 30 q=29.0 size=N/A time=00:05:20.27 bitrate=N/A dup=272 drop=0 speed=1.01x    frame= 9619 fps= 30 q=29.0 size=N/A time=00:05:20.76 bitrate=N/A dup=272 drop=0 speed=1.01x    frame= 9635 fps= 30 q=29.0 size=N/A time=00:05:21.25 bitrate=N/A dup=272 drop=0 speed=1.01x    frame= 9649 fps= 30 q=29.0 size=N/A time=00:05:21.77 bitrate=N/A dup=272 drop=0 speed=1.01x    frame= 9666 fps= 30 q=29.0 size=N/A time=00:05:22.30 bitrate=N/A dup=272 drop=0 speed=1.01x    frame= 9681 fps= 30 q=29.0 size=N/A time=00:05:22.83 bitrate=N/A dup=272 drop=0 speed=1.01x    frame= 9697 fps= 30 q=29.0 size=N/A time=00:05:23.34 bitrate=N/A dup=272 drop=0 speed=1.01x    frame= 9712 fps= 30 q=29.0 size=N/A time=00:05:23.84 bitrate=N/A dup=272 drop=0 speed=1.01x    frame= 9727 fps= 30 q=29.0 size=N/A time=00:05:24.39 bitrate=N/A dup=272 drop=0 speed=1.01x    frame= 9742 fps= 30 q=29.0 size=N/A time=00:05:24.86 bitrate=N/A dup=272 drop=0 speed=1.01x    frame= 9758 fps= 30 q=29.0 size=N/A time=00:05:25.37 bitrate=N/A dup=272 drop=0 speed=1.01x    frame= 9774 fps= 30 q=29.0 size=N/A time=00:05:25.88 bitrate=N/A dup=272 drop=0 speed=1.01x    frame= 9788 fps= 30 q=29.0 size=N/A time=00:05:26.40 bitrate=N/A dup=272 drop=0 speed=1.01x    frame= 9803 fps= 30 q=29.0 size=N/A time=00:05:26.86 bitrate=N/A dup=272 drop=0 speed=1.01x    [hls @ 0x55fd2fefa5c0] Opening '/home/deploy/Projects/fuzzballs/stream/roost/index8.ts' for writing
[hls @ 0x55fd2fefa5c0] Opening '/home/deploy/Projects/fuzzballs/stream/roost/index.m3u8.tmp' for writing
frame= 9818 fps= 30 q=29.0 size=N/A time=00:05:27.40 bitrate=N/A dup=272 drop=0 speed=1.01x    frame= 9834 fps= 30 q=29.0 size=N/A time=00:05:27.91 bitrate=N/A dup=272 drop=0 speed=1.01x    frame= 9849 fps= 30 q=29.0 size=N/A time=00:05:28.42 bitrate=N/A dup=272 drop=0 speed=1.01x    frame= 9865 fps= 30 q=29.0 size=N/A time=00:05:28.93 bitrate=N/A dup=272 drop=0 speed=1.01x    frame= 9880 fps= 30 q=29.0 size=N/A time=00:05:29.47 bitrate=N/A dup=272 drop=0 speed=1.01x    frame= 9895 fps= 30 q=29.0 size=N/A time=00:05:29.96 bitrate=N/A dup=272 drop=0 speed=1.01x    frame= 9910 fps= 30 q=29.0 size=N/A time=00:05:30.49 bitrate=N/A dup=272 drop=0 speed=1.01x    frame= 9926 fps= 30 q=29.0 size=N/A time=00:05:30.96 bitrate=N/A dup=272 drop=0 speed=1.01x    frame= 9942 fps= 30 q=29.0 size=N/A time=00:05:31.49 bitrate=N/A dup=272 drop=0 speed=1.01x    frame= 9957 fps= 30 q=29.0 size=N/A time=00:05:32.03 bitrate=N/A dup=272 drop=0 speed=1.01x    frame= 9972 fps= 30 q=29.0 size=N/A time=00:05:32.54 bitrate=N/A dup=272 drop=0 speed=1.01x    frame= 9988 fps= 30 q=29.0 size=N/A time=00:05:33.05 bitrate=N/A dup=272 drop=0 speed=1.01x    frame=10002 fps= 30 q=29.0 size=N/A time=00:05:33.54 bitrate=N/A dup=272 drop=0 speed=1.01x    frame=10019 fps= 30 q=29.0 size=N/A time=00:05:34.05 bitrate=N/A dup=272 drop=0 speed=1.01x    frame=10034 fps= 30 q=29.0 size=N/A time=00:05:34.61 bitrate=N/A dup=272 drop=0 speed=1.01x    frame=10048 fps= 30 q=29.0 size=N/A time=00:05:35.08 bitrate=N/A dup=272 drop=0 speed=1.01x    [hls @ 0x55fd2fefa5c0] Opening '/home/deploy/Projects/fuzzballs/stream/roost/index9.ts' for writing
[hls @ 0x55fd2fefa5c0] Opening '/home/deploy/Projects/fuzzballs/stream/roost/index.m3u8.tmp' for writing
frame=10065 fps= 30 q=29.0 size=N/A time=00:05:35.61 bitrate=N/A dup=272 drop=0 speed=1.01x    frame=10080 fps= 30 q=29.0 size=N/A time=00:05:36.14 bitrate=N/A dup=272 drop=0 speed=1.01x    frame=10096 fps= 30 q=29.0 size=N/A time=00:05:36.66 bitrate=N/A dup=272 drop=0 speed=1.01x    frame=10111 fps= 30 q=29.0 size=N/A time=00:05:37.17 bitrate=N/A dup=272 drop=0 speed=1.01x    frame=10126 fps= 30 q=29.0 size=N/A time=00:05:37.64 bitrate=N/A dup=272 drop=0 speed=1.01x    frame=10142 fps= 30 q=29.0 size=N/A time=00:05:38.17 bitrate=N/A dup=272 drop=0 speed=1.01x    frame=10158 fps= 30 q=29.0 size=N/A time=00:05:38.68 bitrate=N/A dup=272 drop=0 speed=1.01x    frame=10172 fps= 30 q=29.0 size=N/A time=00:05:39.20 bitrate=N/A dup=272 drop=0 speed=1.01x    frame=10188 fps= 30 q=29.0 size=N/A time=00:05:39.71 bitrate=N/A dup=272 drop=0 speed=1.01x    frame=10204 fps= 30 q=29.0 size=N/A time=00:05:40.22 bitrate=N/A dup=272 drop=0 speed=1.01x    frame=10218 fps= 30 q=29.0 size=N/A time=00:05:40.71 bitrate=N/A dup=272 drop=0 speed=1.01x    frame=10233 fps= 30 q=29.0 size=N/A time=00:05:41.18 bitrate=N/A dup=272 drop=0 speed=1.01x    frame=10249 fps= 30 q=29.0 size=N/A time=00:05:41.73 bitrate=N/A dup=272 drop=0 speed=1.01x    frame=10264 fps= 30 q=29.0 size=N/A time=00:05:42.25 bitrate=N/A dup=272 drop=0 speed=1.01x    frame=10277 fps= 30 q=29.0 size=N/A time=00:05:42.72 bitrate=N/A dup=272 drop=0 speed=1.01x    frame=10295 fps= 30 q=29.0 size=N/A time=00:05:43.29 bitrate=N/A dup=272 drop=0 speed=1.01x    [hls @ 0x55fd2fefa5c0] Opening '/home/deploy/Projects/fuzzballs/stream/roost/index0.ts' for writing
[hls @ 0x55fd2fefa5c0] Opening '/home/deploy/Projects/fuzzballs/stream/roost/index.m3u8.tmp' for writing
frame=10311 fps= 30 q=29.0 size=N/A time=00:05:43.80 bitrate=N/A dup=272 drop=0 speed=1.01x    frame=10327 fps= 30 q=29.0 size=N/A time=00:05:44.34 bitrate=N/A dup=272 drop=0 speed=1.01x    frame=10342 fps= 30 q=29.0 size=N/A time=00:05:44.81 bitrate=N/A dup=272 drop=0 speed=1.01x    frame=10357 fps= 30 q=29.0 size=N/A time=00:05:45.36 bitrate=N/A dup=272 drop=0 speed=1.01x    frame=10372 fps= 30 q=29.0 size=N/A time=00:05:45.85 bitrate=N/A dup=272 drop=0 speed=1.01x    frame=10388 fps= 30 q=29.0 size=N/A time=00:05:46.43 bitrate=N/A dup=272 drop=0 speed=1.01x    frame=10404 fps= 30 q=29.0 size=N/A time=00:05:46.92 bitrate=N/A dup=272 drop=0 speed=1.01x    frame=10420 fps= 30 q=29.0 size=N/A time=00:05:47.45 bitrate=N/A dup=272 drop=0 speed=1.01x    frame=10434 fps= 30 q=29.0 size=N/A time=00:05:47.96 bitrate=N/A dup=272 drop=0 speed=1.01x    frame=10449 fps= 30 q=29.0 size=N/A time=00:05:48.41 bitrate=N/A dup=272 drop=0 speed=1.01x    frame=10465 fps= 30 q=29.0 size=N/A time=00:05:48.94 bitrate=N/A dup=272 drop=0 speed=1.01x    frame=10482 fps= 30 q=29.0 size=N/A time=00:05:49.50 bitrate=N/A dup=272 drop=0 speed=1.01x    frame=10497 fps= 30 q=29.0 size=N/A time=00:05:50.01 bitrate=N/A dup=272 drop=0 speed=1.01x    frame=10513 fps= 30 q=29.0 size=N/A time=00:05:50.57 bitrate=N/A dup=272 drop=0 speed=1.01x    frame=10529 fps= 30 q=29.0 size=N/A time=00:05:51.06 bitrate=N/A dup=272 drop=0 speed=1.01x    frame=10543 fps= 30 q=29.0 size=N/A time=00:05:51.59 bitrate=N/A dup=272 drop=0 speed=1.01x    [hls @ 0x55fd2fefa5c0] Opening '/home/deploy/Projects/fuzzballs/stream/roost/index1.ts' for writing
[hls @ 0x55fd2fefa5c0] Opening '/home/deploy/Projects/fuzzballs/stream/roost/index.m3u8.tmp' for writing
frame=10558 fps= 30 q=29.0 size=N/A time=00:05:52.06 bitrate=N/A dup=272 drop=0 speed=1.01x    frame=10574 fps= 30 q=29.0 size=N/A time=00:05:52.57 bitrate=N/A dup=272 drop=0 speed=1.01x    frame=10590 fps= 30 q=29.0 size=N/A time=00:05:53.10 bitrate=N/A dup=272 drop=0 speed=1.01x    frame=10604 fps= 30 q=29.0 size=N/A time=00:05:53.62 bitrate=N/A dup=272 drop=0 speed=1.01x    frame=10619 fps= 30 q=29.0 size=N/A time=00:05:54.09 bitrate=N/A dup=272 drop=0 speed=1.01x    frame=10636 fps= 30 q=29.0 size=N/A time=00:05:54.62 bitrate=N/A dup=272 drop=0 speed=1.01x    frame=10649 fps= 30 q=29.0 size=N/A time=00:05:55.13 bitrate=N/A dup=272 drop=0 speed=1.01x    frame=10665 fps= 30 q=29.0 size=N/A time=00:05:55.60 bitrate=N/A dup=272 drop=0 speed=1.01x    frame=10681 fps= 30 q=29.0 size=N/A time=00:05:56.13 bitrate=N/A dup=272 drop=0 speed=1.01x    frame=10695 fps= 30 q=29.0 size=N/A time=00:05:56.67 bitrate=N/A dup=272 drop=0 speed=1.01x    frame=10711 fps= 30 q=29.0 size=N/A time=00:05:57.16 bitrate=N/A dup=272 drop=0 speed=1.01x    frame=10726 fps= 30 q=29.0 size=N/A time=00:05:57.63 bitrate=N/A dup=272 drop=0 speed=1.01x    frame=10742 fps= 30 q=29.0 size=N/A time=00:05:58.16 bitrate=N/A dup=272 drop=0 speed=1.01x    frame=10758 fps= 30 q=29.0 size=N/A time=00:05:58.67 bitrate=N/A dup=272 drop=0 speed=1.01x    frame=10773 fps= 30 q=29.0 size=N/A time=00:05:59.25 bitrate=N/A dup=272 drop=0 speed=1.01x    frame=10788 fps= 30 q=29.0 size=N/A time=00:05:59.70 bitrate=N/A dup=272 drop=0 speed=1.01x    frame=10804 fps= 30 q=29.0 size=N/A time=00:06:00.25 bitrate=N/A dup=272 drop=0 speed=1.01x    [hls @ 0x55fd2fefa5c0] Opening '/home/deploy/Projects/fuzzballs/stream/roost/index2.ts' for writing
[hls @ 0x55fd2fefa5c0] Opening '/home/deploy/Projects/fuzzballs/stream/roost/index.m3u8.tmp' for writing
frame=10818 fps= 30 q=29.0 size=N/A time=00:06:00.74 bitrate=N/A dup=272 drop=0 speed=1.01x    frame=10834 fps= 30 q=29.0 size=N/A time=00:06:01.21 bitrate=N/A dup=272 drop=0 speed=1.01x    frame=10849 fps= 30 q=29.0 size=N/A time=00:06:01.79 bitrate=N/A dup=272 drop=0 speed=1.01x    frame=10865 fps= 30 q=29.0 size=N/A time=00:06:02.28 bitrate=N/A dup=272 drop=0 speed=1.01x    frame=10880 fps= 30 q=29.0 size=N/A time=00:06:02.79 bitrate=N/A dup=272 drop=0 speed=1.01x    frame=10895 fps= 30 q=29.0 size=N/A time=00:06:03.32 bitrate=N/A dup=272 drop=0 speed=1.01x    frame=10910 fps= 30 q=29.0 size=N/A time=00:06:03.77 bitrate=N/A dup=272 drop=0 speed=1.01x    frame=10926 fps= 30 q=29.0 size=N/A time=00:06:04.30 bitrate=N/A dup=272 drop=0 speed=1.01x    frame=10941 fps= 30 q=29.0 size=N/A time=00:06:04.84 bitrate=N/A dup=272 drop=0 speed=1.01x    frame=10958 fps= 30 q=29.0 size=N/A time=00:06:05.37 bitrate=N/A dup=272 drop=0 speed=1.01x    frame=10972 fps= 30 q=29.0 size=N/A time=00:06:05.86 bitrate=N/A dup=272 drop=0 speed=1.01x    frame=10987 fps= 30 q=29.0 size=N/A time=00:06:06.40 bitrate=N/A dup=272 drop=0 speed=1.01x    frame=11004 fps= 30 q=29.0 size=N/A time=00:06:06.91 bitrate=N/A dup=272 drop=0 speed=1.01x    frame=11020 fps= 30 q=29.0 size=N/A time=00:06:07.44 bitrate=N/A dup=272 drop=0 speed=1.01x    frame=11034 fps= 30 q=29.0 size=N/A time=00:06:07.93 bitrate=N/A dup=272 drop=0 speed=1.01x    frame=11051 fps= 30 q=29.0 size=N/A time=00:06:08.49 bitrate=N/A dup=272 drop=0 speed=1.01x    [hls @ 0x55fd2fefa5c0] Opening '/home/deploy/Projects/fuzzballs/stream/roost/index3.ts' for writing
[hls @ 0x55fd2fefa5c0] Opening '/home/deploy/Projects/fuzzballs/stream/roost/index.m3u8.tmp' for writing
frame=11066 fps= 30 q=29.0 size=N/A time=00:06:08.98 bitrate=N/A dup=272 drop=0 speed=1.01x    frame=11081 fps= 30 q=29.0 size=N/A time=00:06:09.47 bitrate=N/A dup=272 drop=0 speed=1.01x    frame=11096 fps= 30 q=29.0 size=N/A time=00:06:10.00 bitrate=N/A dup=272 drop=0 speed=1.01x    frame=11111 fps= 30 q=29.0 size=N/A time=00:06:10.49 bitrate=N/A dup=272 drop=0 speed=1.01x    frame=11127 fps= 30 q=29.0 size=N/A time=00:06:11.00 bitrate=N/A dup=272 drop=0 speed=1.01x    frame=11142 fps= 30 q=29.0 size=N/A time=00:06:11.49 bitrate=N/A dup=272 drop=0 speed=1.01x    frame=11157 fps= 30 q=29.0 size=N/A time=00:06:12.07 bitrate=N/A dup=272 drop=0 speed=1.01x    frame=11172 fps= 30 q=29.0 size=N/A time=00:06:12.56 bitrate=N/A dup=272 drop=0 speed=1.01x    frame=11188 fps= 30 q=29.0 size=N/A time=00:06:13.05 bitrate=N/A dup=272 drop=0 speed=1.01x    frame=11204 fps= 30 q=29.0 size=N/A time=00:06:13.58 bitrate=N/A dup=272 drop=0 speed=1.01x    frame=11218 fps= 30 q=29.0 size=N/A time=00:06:14.08 bitrate=N/A dup=272 drop=0 speed=1.01x    frame=11233 fps= 30 q=29.0 size=N/A time=00:06:14.54 bitrate=N/A dup=272 drop=0 speed=1.01x    frame=11249 fps= 30 q=29.0 size=N/A time=00:06:15.08 bitrate=N/A dup=272 drop=0 speed=1.01x    frame=11265 fps= 30 q=29.0 size=N/A time=00:06:15.59 bitrate=N/A dup=272 drop=0 speed=1.01x    frame=11281 fps= 30 q=29.0 size=N/A time=00:06:16.12 bitrate=N/A dup=272 drop=0 speed=1.01x    frame=11294 fps= 30 q=29.0 size=N/A time=00:06:16.61 bitrate=N/A dup=272 drop=0 speed=1.01x    [hls @ 0x55fd2fefa5c0] Opening '/home/deploy/Projects/fuzzballs/stream/roost/index4.ts' for writing
[hls @ 0x55fd2fefa5c0] Opening '/home/deploy/Projects/fuzzballs/stream/roost/index.m3u8.tmp' for writing
frame=11310 fps= 30 q=29.0 size=N/A time=00:06:17.13 bitrate=N/A dup=272 drop=0 speed=1.01x    frame=11325 fps= 30 q=29.0 size=N/A time=00:06:17.64 bitrate=N/A dup=272 drop=0 speed=1.01x    frame=11341 fps= 30 q=29.0 size=N/A time=00:06:18.15 bitrate=N/A dup=272 drop=0 speed=1.01x    frame=11356 fps= 30 q=29.0 size=N/A time=00:06:18.66 bitrate=N/A dup=272 drop=0 speed=1.01x    frame=11372 fps= 30 q=29.0 size=N/A time=00:06:19.20 bitrate=N/A dup=272 drop=0 speed=1.01x    frame=11386 fps= 30 q=29.0 size=N/A time=00:06:19.66 bitrate=N/A dup=272 drop=0 speed=1.01x    frame=11402 fps= 30 q=29.0 size=N/A time=00:06:20.22 bitrate=N/A dup=272 drop=0 speed=1.01x    